<?xml version="1.0" encoding="utf-8"?>
<svg viewBox="0 0 500 500" xmlns="http://www.w3.org/2000/svg">
  <defs>
    <clipPath id="s">
      <path d="M 148 483 L 531 483 L 531 616.136719 L 148 616.136719 Z M 148 483"/>
    </clipPath>
    <clipPath id="t">
      <path d="M 119.03125 461 L 210 461 L 210 499 L 119.03125 499 Z M 119.03125 461"/>
    </clipPath>
    <clipPath id="u">
      <path d="M 119.03125 370 L 210 370 L 210 408 L 119.03125 408 Z M 119.03125 370"/>
    </clipPath>
    <clipPath id="v">
      <path d="M 119.03125 279 L 210 279 L 210 317 L 119.03125 317 Z M 119.03125 279"/>
    </clipPath>
  </defs>
  <path fill="#2757F7" d="M 49.214 222.592 L 70.975 222.592 L 70.975 172.123 L 49.214 172.123 L 49.214 222.592"/>
  <path fill="#2757F7" d="M 49.214 313.693 L 70.975 313.693 L 70.975 263.224 L 49.214 263.224 L 49.214 313.693"/>
  <path fill="#2757F7" d="M 431.436 146.763 L 431.436 186.267 C 424.132 193.416 416.827 200.654 409.581 207.865 L 409.581 55.295 C 409.581 45.244 401.452 37.084 391.366 37.084 L 89.253 37.084 C 79.167 37.084 71.038 45.244 71.038 55.295 L 71.038 131.459 L 49.276 131.459 L 49.276 55.295 C 49.276 33.236 67.186 15.334 89.253 15.334 L 391.366 15.334 C 413.433 15.334 431.347 33.236 431.347 55.295 L 431.347 146.763 L 431.436 146.763"/>
  <g clip-path="url(#s)" transform="matrix(1, 0, 0, 1, -98.907333, -146.724808)">
    <path fill="#2757F7" d="M 518.789062 491 C 522.488281 493.015625 526.339844 494.085938 530.34375 494.300781 L 530.34375 576.636719 C 530.34375 598.601562 512.339844 616.597656 490.273438 616.597656 L 188.160156 616.597656 C 166.09375 616.597656 148.183594 598.601562 148.183594 576.636719 L 148.183594 500.6875 L 169.945312 500.6875 L 169.945312 576.636719 C 169.945312 586.6875 178.074219 594.84375 188.160156 594.84375 L 490.273438 594.84375 C 500.359375 594.84375 508.582031 586.6875 508.582031 576.636719 L 508.582031 508.75 L 508.488281 508.75 L 508.488281 484.859375 L 509.867188 483.484375 C 512.1875 486.480469 515.183594 489.015625 518.789062 491"/>
  </g>
  <g clip-path="url(#t)" transform="matrix(1, 0, 0, 1, -98.907333, -146.724808)">
    <path fill="#2757F7" d="M 174.835938 470.988281 L 128.710938 470.988281 C 123.484375 470.988281 119.265625 475.175781 119.265625 480.398438 C 119.265625 485.625 123.484375 489.777344 128.710938 489.777344 L 174.835938 489.777344 C 178.042969 495.1875 183.945312 498.820312 190.699219 498.820312 C 200.878906 498.820312 209.160156 490.574219 209.160156 480.371094 C 209.160156 470.195312 200.878906 461.917969 190.699219 461.917969 C 183.945312 461.917969 178.042969 465.550781 174.835938 470.988281"/>
  </g>
  <g clip-path="url(#u)" transform="matrix(1, 0, 0, 1, -98.907333, -146.724808)">
    <path fill="#2757F7" d="M 174.867188 379.855469 L 128.710938 379.855469 C 123.484375 379.855469 119.265625 384.132812 119.265625 389.296875 C 119.265625 394.519531 123.484375 398.765625 128.710938 398.765625 L 174.867188 398.765625 C 178.105469 404.144531 183.972656 407.75 190.699219 407.75 C 200.878906 407.75 209.160156 399.5 209.160156 389.296875 C 209.160156 379.125 200.878906 370.875 190.699219 370.875 C 183.972656 370.875 178.105469 374.480469 174.867188 379.855469"/>
  </g>
  <g clip-path="url(#v)" transform="matrix(1, 0, 0, 1, -98.907333, -146.724808)">
    <path fill="#2757F7" d="M 174.835938 288.875 L 128.710938 288.875 C 123.484375 288.875 119.265625 293.0625 119.265625 298.222656 C 119.265625 303.449219 123.484375 307.632812 128.710938 307.632812 L 174.835938 307.632812 C 178.042969 313.070312 183.945312 316.707031 190.699219 316.707031 C 200.878906 316.707031 209.160156 308.429688 209.160156 298.253906 C 209.160156 288.050781 200.878906 279.800781 190.699219 279.800781 C 183.945312 279.800781 178.042969 283.4375 174.835938 288.875"/>
  </g>
  <path fill="#2757F7" d="M 467.597 252.775 C 439.292 281.127 456.378 263.681 427.679 292.338 C 414.78 279.201 401.667 268.142 389.136 255.373 C 389.136 255.279 389.288 254.763 389.655 254.365 C 424.866 219.26 415.3 228.947 450.815 194.119 C 455.89 189.076 462.522 185.135 469.061 182.08 C 478.05 177.771 487.034 180.674 494.737 188.525 C 502.198 196.041 505.405 204.721 500.026 214.342 C 495.96 221.553 490.124 227.787 485.05 234.416 C 484.436 235.24 483.675 236.002 482.878 236.857 L 480.343 239.396 L 467.597 252.775"/>
  <path fill="#2757F7" d="M 509.257 255.158 C 500.944 263.681 492.569 271.994 484.194 280.455 C 469.37 295.271 454.604 310.181 439.753 324.998 C 436.694 328.084 433.3 329.705 429.054 327.412 C 425.444 325.396 424.132 322.037 425.292 318.248 C 425.995 316.17 427.768 314.338 429.39 312.717 C 445.284 296.646 496.358 245.474 498.194 243.701 C 502.561 239.486 506.964 239.396 510.417 243.181 C 513.507 246.392 513.108 251.158 509.257 255.158"/>
  <path fill="#2757F7" d="M 371.132 88.9 C 371.132 93.666 367.311 97.513 362.511 97.513 L 154.909 97.513 C 150.14 97.513 146.319 93.666 146.319 88.9 C 146.319 84.135 150.14 80.283 154.909 80.283 L 362.511 80.283 C 367.311 80.283 371.132 84.135 371.132 88.9"/>
  <path fill="#2757F7" d="M 371.132 165.736 C 371.132 170.502 367.311 174.349 362.511 174.349 L 154.909 174.349 C 150.14 174.349 146.319 170.502 146.319 165.736 C 146.319 161.002 150.14 157.15 154.909 157.15 L 362.511 157.15 C 367.311 157.15 371.132 161.002 371.132 165.736"/>
  <path fill="#2757F7" d="M 370.948 240.83 C 367.495 244.283 364.038 247.736 360.585 251.217 L 154.878 251.217 C 150.14 251.217 146.292 247.369 146.292 242.603 C 146.292 237.838 150.14 233.986 154.878 233.986 L 362.511 233.986 C 366.667 233.986 370.124 236.92 370.948 240.83"/>
  <path fill="#2757F7" d="M 417.468 302.881 C 417.468 302.881 330.784 391.111 316.112 401.041 C 316.112 401.041 284.202 424.474 268.124 423.556 C 267.667 423.709 267.362 423.771 266.995 423.709 L 263.018 427.924 C 262.257 428.779 261.186 429.146 260.179 429.146 C 259.261 429.146 258.343 428.873 257.581 428.17 C 256.022 426.763 255.866 424.318 257.335 422.701 L 260.972 418.849 C 260.667 417.994 260.515 417.17 260.452 416.314 C 258.987 400.244 281.358 367.678 281.358 367.678 C 290.804 352.678 377.093 264.142 377.093 264.142 L 397.233 283.295 C 397.538 283.295 417.468 302.881 417.468 302.881"/>
</svg>