<?xml version="1.0" encoding="utf-8"?>
<svg viewBox="0 0 500 500" xmlns="http://www.w3.org/2000/svg">
  <defs>
    <clipPath id="a">
      <path d="M 65.363281 494 L 595.5 494 L 595.5 757.625 L 65.363281 757.625 Z M 65.363281 494"/>
    </clipPath>
    <clipPath id="b">
      <path d="M 65.363281 596 L 595.5 596 L 595.5 757.625 L 65.363281 757.625 Z M 65.363281 596"/>
    </clipPath>
    <clipPath id="c">
      <path d="M 187 501 L 331 501 L 331 757.625 L 187 757.625 Z M 187 501"/>
    </clipPath>
    <clipPath id="d">
      <path d="M 329 499 L 475 499 L 475 757.625 L 329 757.625 Z M 329 499"/>
    </clipPath>
  </defs>
  <g clip-path="url(#a)" transform="matrix(0.728858, 0, 0, 0.720736, 5.626043, -90.812225)" style="">
    <path fill="#2C5189" d="M 571.601562 552.550781 C 565.929688 537.808594 548.886719 529.859375 548.886719 529.859375 L 403.472656 494.679688 L 330.433594 519.414062 L 257.390625 494.679688 L 111.980469 529.859375 C 111.980469 529.859375 94.933594 537.808594 89.261719 552.550781 C 83.5625 567.320312 65.417969 757.363281 65.417969 757.363281 L 595.476562 757.363281 C 595.476562 757.363281 577.300781 567.320312 571.601562 552.550781"/>
  </g>
  <g clip-path="url(#b)" transform="matrix(0.728858, 0, 0, 0.720736, 5.626043, -90.812225)" style="">
    <path fill="#234774" d="M 595.476562 757.363281 C 595.476562 757.363281 585.851562 656.957031 578.429688 596.457031 C 440.25 728.738281 100.605469 730.644531 67.945312 731.367188 C 66.386719 747.183594 65.417969 757.363281 65.417969 757.363281 L 595.476562 757.363281"/>
  </g>
  <path fill="#D1E4F1" d="M 171.281 270.986 L 246.465 417.848 L 314.457 269.243 L 246.974 283.723 L 171.281 270.986" style=""/>
  <path fill="#172F4C" d="M 264.217 283.723 L 247.601 283.314 L 230.985 283.723 L 229.516 307.471 L 240.703 318.482 L 254.497 318.482 L 265.685 307.471 L 264.217 283.723" style=""/>
  <path fill="#EE9255" d="M 246.974 278.805 L 294.116 264.911 C 286.711 252.233 281.772 192.524 281.772 192.524 L 246.974 205.202 L 212.195 192.524 C 212.195 192.524 207.257 252.233 199.849 264.911 L 246.974 278.805" style=""/>
  <path fill="#F9B57C" d="M 247.032 42.721 C 184.116 42.431 171.791 96.43 175.925 135.679 C 176.691 143.015 181.019 174.796 187.427 201.931 C 190.386 214.529 208.784 230.053 226.342 240.369 C 237.371 246.853 247.032 248.691 247.032 248.691 C 247.051 248.691 256.712 246.853 267.744 240.369 C 285.279 230.053 303.68 214.529 306.658 201.931 C 313.064 174.796 317.395 143.015 318.158 135.679 C 322.295 96.43 305.835 45.992 247.032 42.721" style=""/>
  <path fill="#F9B57C" d="M 179.983 133.241 C 179.983 133.241 161.758 116.056 156.801 132.411 C 152.707 145.899 169.539 184.878 181.391 172.144 L 179.983 133.241" style=""/>
  <path fill="#F9B57C" d="M 313.653 133.241 C 313.653 133.241 331.855 116.056 336.831 132.411 C 340.926 145.899 324.077 184.878 312.241 172.144 L 313.653 133.241" style=""/>
  <path fill="#FFF" d="M 246.974 278.805 C 246.974 278.805 207.138 260.4 203.084 256.104 C 203.084 256.104 196.128 253.877 191.974 258.367 C 187.837 262.858 171.281 270.986 171.281 270.986 L 208.433 343.547 C 208.433 343.547 228.007 307.857 246.974 286.586 L 246.974 278.805" style=""/>
  <path fill="#FFF" d="M 246.974 278.805 C 246.974 278.805 286.828 260.4 290.883 256.104 C 290.883 256.104 297.841 253.877 301.975 258.367 C 306.128 262.858 314.457 269.243 314.457 269.243 L 281.811 340.605 C 281.811 340.605 265.959 307.857 246.974 286.586 L 246.974 278.805" style=""/>
  <path fill="#172F4C" d="M 240.703 318.482 L 229.516 384.753 L 246.465 417.848 L 263.001 381.712 L 254.497 318.482 L 240.703 318.482" style=""/>
  <g clip-path="url(#c)" transform="matrix(0.728858, 0, 0, 0.720736, 5.626043, -90.812225)" style="">
    <path fill="#335C92" d="M 207.765625 506.683594 L 187.710938 576.394531 L 221.796875 590.011719 L 187.710938 616.488281 L 303.578125 757.363281 L 329.734375 757.363281 L 330.433594 705.75 L 227.28125 501.984375 L 207.765625 506.683594"/>
  </g>
  <g clip-path="url(#d)" transform="matrix(0.728858, 0, 0, 0.720736, 5.626043, -90.812225)" style="">
    <path fill="#335C92" d="M 443.207031 504.292969 L 474.714844 576.394531 L 440.628906 590.011719 L 474.714844 616.488281 L 356.292969 757.363281 L 329.734375 757.363281 L 330.433594 705.75 L 423.71875 499.566406 L 443.207031 504.292969"/>
  </g>
  <path fill="#462516" d="M 171.281 127.165 L 177.198 145.705 C 177.198 145.705 184.389 127.785 188.82 120.158 C 193.227 112.514 195.422 92.888 195.422 87.429 C 195.422 81.99 199.849 74.346 203.71 72.719 C 207.571 71.074 242.898 83.617 254.497 80.889 C 266.079 78.158 296.448 75.971 298.094 76.534 C 299.76 77.074 301.405 84.701 302.522 89.617 C 303.62 94.513 298.094 113.598 302.522 120.158 C 306.932 126.681 316.259 150.021 316.259 150.021 C 316.259 150.021 331.285 84.701 322.235 60.719 C 313.161 36.722 273.267 18.199 250.323 16.293 C 226.772 14.351 183.017 32.909 171.281 62.887 C 159.546 92.888 171.281 127.165 171.281 127.165" style=""/>
</svg>