<?xml version="1.0" encoding="utf-8"?>
<svg viewBox="0 0 500 500" xmlns="http://www.w3.org/2000/svg">
  <defs>
    <clipPath id="o">
      <path d="M 584 667 L 936 667 L 936 1021.960938 L 584 1021.960938 Z M 584 667"/>
    </clipPath>
  </defs>
  <g clip-path="url(#o)" transform="matrix(0.999812, 0.019387, -0.019387, 0.999812, -595.869629, -552.714294)">
    <path fill="#DAD1B4" d="M 622.019 723.867 C 632.97 707.992 649.502 697.371 666.44 689.758 C 698.999 675.383 734.499 670.77 769.592 667.66 C 771.721 667.445 944.246 830.059 944.246 831.238 C 944.246 853.016 942.623 875.648 932.175 894.313 C 916.149 923.059 882.985 935.824 851.746 940.117 C 820.508 944.406 788.153 942.582 757.928 952.023 C 751.437 954.059 744.844 956.742 739.976 961.57 C 724.456 976.266 729.021 1003.938 717.053 1021.961 C 705.796 992.355 692.001 960.176 664.718 946.551 C 652.24 940.328 636.928 938.078 628.712 926.277 C 624.147 919.734 622.625 911.262 621.206 903.109 C 615.727 874.684 603.354 750.898 622.019 723.867 Z M 622.019 723.867" style=""/>
  </g>
  <path fill="#EAD4AF" d="M 146.738 63.606 C 157.226 36.469 186.534 28.207 211.728 25.418 C 287.104 17.16 366.697 14.691 435.389 48.375 C 449.992 55.668 464.183 64.68 474.466 77.551 C 489.582 96.535 494.518 122.496 494.829 147.274 C 495.137 172.051 491.227 196.508 490.714 221.285 C 490.201 241.988 491.539 264.836 478.992 280.926 C 465.521 298.195 441.868 300.77 422.123 308.922 C 416.776 311.176 411.635 313.965 408.038 318.469 C 404.23 323.191 402.585 329.195 401.045 335.098 C 398.062 346.68 394.873 358.051 391.891 369.637 C 376.159 357.406 368.856 336.598 355.797 321.258 C 345.308 309.352 332.042 301.414 317.544 296.16 C 299.856 289.723 140.671 138.262 140.465 132.578 C 139.846 109.836 139.127 83.234 146.738 63.606 Z M 146.738 63.606" style="" transform="matrix(0.999812, 0.019387, -0.019387, 0.999812, 3.83822, -6.118283)"/>
  <path fill="#B4AC88" d="M 265.984 284.749 C 236.824 283.03 205.633 282.28 181.836 265.545 C 164.039 253.104 152.676 233.045 146.781 212.127 C 141.102 191.209 140.352 169.221 140.352 147.448 C 140.352 142.405 140.137 136.936 140.027 131.358 C 142.281 131.143 144.316 131.034 146.461 130.819 C 194.16 127.065 246.043 125.456 285.598 152.487 C 296.32 159.784 305.965 169.221 311.648 180.807 C 317.328 192.389 319.258 205.584 320.437 218.35 C 323.012 242.698 324.191 267.155 324.402 291.506 C 324.402 292.577 324.402 293.756 324.402 294.831 C 306.18 288.393 285.707 285.928 265.984 284.749 Z M 265.984 284.749" transform="matrix(0.999812, 0.019387, -0.019387, 0.999812, 4.149418, -4.462079)"/>
</svg>