<?xml version="1.0" encoding="utf-8"?>
<svg viewBox="0 0 500 500" xmlns="http://www.w3.org/2000/svg">
  <path fill="#F00" d="M 29.928 158.686 L 50.8 158.686 L 76.7 248.687 L 102.979 158.686 L 123.545 158.686 L 142.438 287.722 L 121.868 287.722 L 109.833 206.232 L 85.991 287.722 L 67.177 287.722 L 43.64 206.232 L 31.374 287.722 L 10.581 287.722 Z M 29.928 158.686" style=""/>
  <path d="M 160.108 229.037 L 198.802 229.037 L 198.802 251.319 L 160.108 251.319 Z M 225.008 158.686 L 246.338 158.686 L 246.338 264.298 L 277.414 264.298 L 277.414 287.722 L 225.008 287.722 Z M 352.597 192.282 L 373.316 192.282 L 373.316 287.722 L 352.597 287.722 L 352.597 277.635 C 348.533 282.075 344.459 285.277 340.372 287.236 C 336.285 289.2 331.855 290.177 327.082 290.177 C 316.363 290.177 307.095 285.395 299.277 275.836 C 291.455 266.273 287.544 254.387 287.544 240.175 C 287.544 225.44 291.33 213.368 298.897 203.948 C 306.46 194.534 315.654 189.827 326.47 189.827 C 331.447 189.827 336.118 190.91 340.488 193.071 C 344.853 195.238 348.89 198.483 352.597 202.811 Z M 330.738 211.932 C 324.287 211.932 318.93 214.547 314.662 219.783 C 310.399 225.018 308.263 231.727 308.263 239.914 C 308.263 248.159 310.436 254.942 314.778 260.263 C 319.12 265.584 324.463 268.247 330.812 268.247 C 337.365 268.247 342.796 265.632 347.115 260.397 C 351.429 255.161 353.588 248.309 353.588 239.828 C 353.588 231.524 351.429 224.799 347.115 219.649 C 342.796 214.505 337.337 211.932 330.738 211.932 Z M 414.985 155.441 L 414.985 202.811 C 418.743 198.483 422.803 195.238 427.173 193.071 C 431.538 190.91 436.209 189.827 441.186 189.827 C 452.002 189.827 461.196 194.534 468.763 203.948 C 476.33 213.368 480.112 225.44 480.112 240.175 C 480.112 254.387 476.201 266.273 468.383 275.836 C 460.561 285.395 451.293 290.177 440.579 290.177 C 435.806 290.177 431.362 289.2 427.247 287.236 C 423.136 285.277 419.044 282.075 414.985 277.635 L 414.985 287.722 L 394.34 287.722 L 394.34 155.441 Z M 436.844 211.932 C 430.296 211.932 424.86 214.505 420.546 219.649 C 416.227 224.799 414.067 231.524 414.067 239.828 C 414.067 248.309 416.227 255.161 420.546 260.397 C 424.86 265.632 430.296 268.247 436.844 268.247 C 443.192 268.247 448.535 265.584 452.878 260.263 C 457.22 254.942 459.393 248.159 459.393 239.914 C 459.393 231.727 457.261 225.018 452.993 219.783 C 448.73 214.547 443.345 211.932 436.844 211.932 Z M 436.844 211.932" style=""/>
</svg>