<svg xmlns="http://www.w3.org/2000/svg" width="1190.25" viewBox="0 0 1190.25 1683.75" height="1683.75" version="1.0"><defs><clipPath id="a"><path d="M 407 998 L 478.890625 998 L 478.890625 1322 L 407 1322 Z M 407 998"/></clipPath><clipPath id="b"><path d="M 114 1321 L 478.890625 1321 L 478.890625 1360.398438 L 114 1360.398438 Z M 114 1321"/></clipPath><clipPath id="c"><path d="M 87.472656 913 L 448 913 L 448 1104 L 87.472656 1104 Z M 87.472656 913"/></clipPath><clipPath id="d"><path d="M 407 895.496094 L 478 895.496094 L 478 964 L 407 964 Z M 407 895.496094"/></clipPath><clipPath id="e"><path d="M 871 1398 L 1142.621094 1398 L 1142.621094 1539 L 871 1539 Z M 871 1398"/></clipPath><clipPath id="f"><path d="M 871 1404 L 1142.621094 1404 L 1142.621094 1539 L 871 1539 Z M 871 1404"/></clipPath><clipPath id="g"><path d="M 552.496094 1398 L 824 1398 L 824 1539 L 552.496094 1539 Z M 552.496094 1398"/></clipPath><clipPath id="h"><path d="M 552.496094 1403 L 688 1403 L 688 1539 L 552.496094 1539 Z M 552.496094 1403"/></clipPath><clipPath id="i"><path d="M 682 1390 L 1019 1390 L 1019 1565.121094 L 682 1565.121094 Z M 682 1390"/></clipPath><clipPath id="j"><path d="M 822 1432 L 879 1432 L 879 1565.121094 L 822 1565.121094 Z M 822 1432"/></clipPath><clipPath id="k"><path d="M 682 1396 L 851 1396 L 851 1565.121094 L 682 1565.121094 Z M 682 1396"/></clipPath><clipPath id="l"><path d="M 850 1396 L 1019 1396 L 1019 1565.121094 L 850 1565.121094 Z M 850 1396"/></clipPath><clipPath id="m"><path d="M 748 1396 L 851 1396 L 851 1565.121094 L 748 1565.121094 Z M 748 1396"/></clipPath><clipPath id="n"><path d="M 850 1396 L 954 1396 L 954 1565.121094 L 850 1565.121094 Z M 850 1396"/></clipPath><clipPath id="o"><path d="M 584 667 L 936 667 L 936 1021.960938 L 584 1021.960938 Z M 584 667"/></clipPath><clipPath id="p"><path d="M 760 451 L 843 451 L 843 494.085938 L 760 494.085938 Z M 760 451"/></clipPath><clipPath id="q"><path d="M 686.53125 111 L 923.378906 111 L 923.378906 379 L 686.53125 379 Z M 686.53125 111"/></clipPath><clipPath id="r"><path d="M 743 44.738281 L 867 44.738281 L 867 107 L 743 107 Z M 743 44.738281"/></clipPath><clipPath id="s"><path d="M 148 483 L 531 483 L 531 616.136719 L 148 616.136719 Z M 148 483"/></clipPath><clipPath id="t"><path d="M 119.03125 461 L 210 461 L 210 499 L 119.03125 499 Z M 119.03125 461"/></clipPath><clipPath id="u"><path d="M 119.03125 370 L 210 370 L 210 408 L 119.03125 408 Z M 119.03125 370"/></clipPath><clipPath id="v"><path d="M 119.03125 279 L 210 279 L 210 317 L 119.03125 317 Z M 119.03125 279"/></clipPath></defs><path fill="#5CE1E6" d="M 120.925781 1185.75 C 120.914062 1186.117188 120.871094 1186.476562 120.871094 1186.847656 L 120.871094 1321.503906 L 191.972656 1321.503906 L 191.972656 1186.847656 C 191.972656 1186.476562 191.933594 1186.117188 191.917969 1185.75 Z M 120.925781 1185.75"/><path fill="#5CE1E6" d="M 213.867188 1118.207031 L 284.96875 1118.207031 L 284.96875 1321.503906 L 213.867188 1321.503906 Z M 213.867188 1118.207031"/><path fill="#5CE1E6" d="M 310.011719 1066.199219 L 381.113281 1066.199219 L 381.113281 1321.503906 L 310.011719 1321.503906 Z M 310.011719 1066.199219"/><g clip-path="url(#a)"><path fill="#5CE1E6" d="M 407.734375 998.433594 L 478.835938 998.433594 L 478.835938 1321.503906 L 407.734375 1321.503906 Z M 407.734375 998.433594"/></g><path fill="#03989E" d="M 114.3125 1185.75 C 114.304688 1186.117188 114.257812 1186.476562 114.257812 1186.847656 L 114.257812 1321.503906 L 185.363281 1321.503906 L 185.363281 1186.847656 C 185.363281 1186.476562 185.320312 1186.117188 185.308594 1185.75 Z M 114.3125 1185.75"/><path fill="#5CE1E6" d="M 207.253906 1118.207031 L 278.355469 1118.207031 L 278.355469 1321.503906 L 207.253906 1321.503906 Z M 207.253906 1118.207031"/><path fill="#03989E" d="M 303.398438 1066.199219 L 374.503906 1066.199219 L 374.503906 1321.503906 L 303.398438 1321.503906 Z M 303.398438 1066.199219"/><path fill="#5CE1E6" d="M 401.121094 998.433594 L 472.222656 998.433594 L 472.222656 1321.503906 L 401.121094 1321.503906 Z M 401.121094 998.433594"/><g clip-path="url(#b)"><path fill="#5CE1E6" d="M 114.257812 1321.503906 L 478.835938 1321.503906 L 478.835938 1360.507812 L 114.257812 1360.507812 Z M 114.257812 1321.503906"/></g><g clip-path="url(#c)"><path fill="#EB5C5D" d="M 95.675781 1103.164062 L 87.542969 1089.332031 L 255.167969 990.828125 L 336.230469 990.828125 L 438.179688 913.246094 L 447.894531 926.015625 L 341.644531 1006.875 L 259.535156 1006.875 Z M 95.675781 1103.164062"/></g><path fill="#EB5C5D" d="M 467.113281 903.667969 L 424.058594 903.96875 L 440.242188 924.667969 L 456.429688 945.371094 Z M 467.113281 903.667969"/><g clip-path="url(#d)"><path fill="#EB5C5D" d="M 460.15625 963.164062 L 407.6875 896.058594 L 477.472656 895.570312 Z M 440.429688 911.878906 L 452.707031 927.578125 L 456.757812 911.765625 Z M 440.429688 911.878906"/></g><path fill="#3C3E68" d="M 1068.542969 1444.164062 L 943.996094 1444.164062 L 943.996094 1266.921875 L 1068.542969 1266.921875 L 1068.542969 1444.164062"/><path fill="#51558F" d="M 1052.851562 1218.71875 C 1052.851562 1218.71875 1082.121094 1244.035156 1082.121094 1288.148438 L 1082.121094 1444.164062 L 1052.851562 1444.164062 L 1052.851562 1218.71875"/><path fill="#F0AC92" d="M 1036.210938 1413.277344 L 978.117188 1413.277344 L 978.117188 1356.941406 L 1036.210938 1356.941406 L 1036.210938 1413.277344"/><path fill="#F8BFA7" d="M 1066.851562 1258.1875 C 1053.089844 1209.796875 1009.816406 1210.0625 1007.203125 1210.113281 L 1006.886719 1210.113281 C 1004.25 1210.0625 960.976562 1209.796875 947.210938 1258.1875 C 947.210938 1258.1875 936.953125 1279.25 952.144531 1337.277344 C 952.144531 1337.277344 969.125 1382.417969 1006.886719 1386.90625 L 1007.203125 1386.90625 C 1044.941406 1382.417969 1061.921875 1337.277344 1061.921875 1337.277344 C 1077.113281 1279.25 1066.851562 1258.1875 1066.851562 1258.1875"/><path fill="#F8BFA7" d="M 1070.019531 1305.597656 C 1064.320312 1304.648438 1058.679688 1311.035156 1057.414062 1319.824219 C 1056.121094 1328.617188 1059.679688 1336.511719 1065.375 1337.433594 C 1071.074219 1338.359375 1076.691406 1331.996094 1077.980469 1323.207031 C 1079.273438 1314.414062 1075.6875 1306.519531 1070.019531 1305.597656"/><path fill="#F8BFA7" d="M 944.046875 1305.597656 C 938.378906 1306.519531 934.792969 1314.414062 936.082031 1323.207031 C 937.375 1331.996094 943.019531 1338.359375 948.6875 1337.433594 C 954.382812 1336.511719 957.945312 1328.617188 956.652344 1319.824219 C 955.359375 1311.035156 949.742188 1304.648438 944.046875 1305.597656"/><g clip-path="url(#e)"><path fill="#F0AC92" d="M 1135.125 1457.8125 C 1131.488281 1434.183594 1111.523438 1426.898438 1111.523438 1426.898438 L 1036.183594 1398.546875 L 978.117188 1398.546875 L 902.777344 1426.898438 C 902.777344 1426.898438 882.789062 1434.183594 879.175781 1457.8125 L 871.925781 1538.667969 L 1142.402344 1538.667969 L 1135.125 1457.8125"/></g><g clip-path="url(#f)"><path fill="#EC3655" d="M 1053.5625 1405.09375 L 1111.523438 1426.898438 C 1111.523438 1426.898438 1131.488281 1434.183594 1135.125 1457.8125 L 1142.402344 1538.667969 L 871.925781 1538.667969 L 879.175781 1457.8125 C 882.789062 1434.183594 902.777344 1426.898438 902.777344 1426.898438 L 961.769531 1404.695312 C 961.769531 1404.695312 960.871094 1446.90625 1007.152344 1450.523438 C 1007.152344 1450.523438 1056.570312 1454.800781 1053.5625 1405.09375"/></g><path fill="#51558F" d="M 979.859375 1244.5625 C 979.859375 1244.5625 956.914062 1254.675781 956.914062 1305.492188 L 956.914062 1412.40625 L 929.621094 1422.277344 L 929.621094 1310.769531 C 929.621094 1310.769531 922.632812 1249.261719 963.351562 1216.449219 L 979.859375 1244.5625"/><path fill="#51558F" d="M 963.351562 1216.449219 C 963.351562 1216.449219 1006.097656 1185.695312 1052.851562 1218.71875 C 1052.851562 1218.71875 1072.3125 1232.367188 1077.136719 1257.472656 C 1077.136719 1257.472656 1085.101562 1289.601562 1070.019531 1305.597656 C 1070.019531 1305.597656 1010.316406 1292.476562 979.859375 1244.5625 L 963.351562 1216.449219"/><path fill="#F8BFA7" d="M 751.386719 1300.953125 C 745.53125 1300.027344 739.730469 1306.441406 738.386719 1315.3125 C 737.066406 1324.207031 740.757812 1332.152344 746.585938 1333.105469 C 752.441406 1334.027344 758.242188 1327.613281 759.585938 1318.742188 C 760.90625 1309.847656 757.242188 1301.902344 751.386719 1300.953125"/><path fill="#F8BFA7" d="M 624.570312 1300.953125 C 618.71875 1301.902344 615.050781 1309.847656 616.371094 1318.742188 C 617.6875 1327.613281 623.492188 1334.027344 629.34375 1333.105469 C 635.199219 1332.152344 638.863281 1324.207031 637.546875 1315.3125 C 636.226562 1306.441406 630.398438 1300.027344 624.570312 1300.953125"/><path fill="#F0AC92" d="M 717.027344 1413.277344 L 658.933594 1413.277344 L 658.933594 1356.941406 L 717.027344 1356.941406 L 717.027344 1413.277344"/><path fill="#F8BFA7" d="M 747.535156 1260.058594 C 734.695312 1218.085938 696.933594 1214.390625 687.964844 1214.101562 C 679 1214.390625 641.238281 1218.085938 628.394531 1260.058594 C 628.394531 1260.058594 627.578125 1298.101562 634.933594 1349.390625 C 635.671875 1354.644531 639.578125 1359.1875 643.480469 1362.539062 C 655.609375 1372.941406 672.328125 1385.347656 687.964844 1386.480469 C 703.628906 1385.347656 720.320312 1372.941406 732.453125 1362.539062 C 736.382812 1359.1875 740.257812 1354.644531 741.023438 1349.390625 C 748.378906 1298.101562 747.535156 1260.058594 747.535156 1260.058594"/><path fill="#51558F" d="M 744.371094 1318.585938 C 744.082031 1318.664062 743.84375 1318.71875 743.605469 1318.742188 C 742.578125 1325.160156 742.078125 1324.339844 738.121094 1329.382812 C 734.800781 1333.683594 730.605469 1336.035156 725.253906 1336.828125 C 718.398438 1337.855469 714.574219 1332.972656 708.324219 1331.757812 C 702.3125 1330.625 697.328125 1332.917969 691.472656 1332.734375 C 686.910156 1332.601562 682.535156 1331.8125 677.996094 1331.386719 C 669.769531 1330.597656 662.652344 1335.320312 654.660156 1334.398438 C 643.214844 1333.050781 640.949219 1325.660156 631.640625 1322.625 C 632.507812 1330.992188 633.5625 1339.96875 634.933594 1349.390625 C 635.671875 1354.644531 639.578125 1359.1875 643.480469 1362.539062 C 655.609375 1372.941406 672.328125 1385.347656 687.964844 1386.480469 C 703.628906 1385.347656 720.320312 1372.941406 732.453125 1362.539062 C 736.382812 1359.1875 740.257812 1354.644531 741.023438 1349.390625 C 742.578125 1338.410156 743.792969 1328.007812 744.6875 1318.480469 C 744.582031 1318.53125 744.476562 1318.558594 744.371094 1318.585938"/><g clip-path="url(#g)"><path fill="#F0AC92" d="M 815.941406 1457.8125 C 812.300781 1434.183594 792.339844 1426.898438 792.339844 1426.898438 L 717 1398.546875 L 658.933594 1398.546875 L 583.59375 1426.898438 C 583.59375 1426.898438 563.628906 1434.183594 559.992188 1457.8125 L 552.714844 1538.667969 L 823.21875 1538.667969 L 815.941406 1457.8125"/><path fill="#D1F0FC" d="M 815.941406 1457.8125 C 812.300781 1434.183594 792.339844 1426.898438 792.339844 1426.898438 L 717 1398.546875 L 687.964844 1407.363281 L 658.933594 1398.546875 L 583.59375 1426.898438 C 583.59375 1426.898438 563.628906 1434.183594 559.992188 1457.8125 L 552.714844 1538.667969 L 823.21875 1538.667969 L 815.941406 1457.8125"/></g><path fill="#FBCA48" d="M 695.585938 1431.730469 L 702.207031 1407.839844 L 673.726562 1407.839844 L 680.34375 1431.730469 L 695.585938 1431.730469"/><path fill="#F8A446" d="M 695.585938 1431.730469 L 680.34375 1431.730469 L 665.234375 1538.667969 L 710.695312 1538.667969 L 695.585938 1431.730469"/><g clip-path="url(#h)"><path fill="#2F497B" d="M 687.835938 1512.480469 L 645.878906 1403.457031 L 583.59375 1426.898438 C 583.59375 1426.898438 563.628906 1434.183594 559.992188 1457.8125 L 552.714844 1538.667969 L 687.835938 1538.667969 L 687.835938 1512.480469"/></g><path fill="#2F497B" d="M 688.125 1512.480469 L 730.054688 1403.457031 L 792.339844 1426.898438 C 792.339844 1426.898438 812.328125 1434.183594 815.96875 1457.8125 L 823.21875 1538.667969 L 688.125 1538.667969 L 688.125 1512.480469"/><path fill="#36538C" d="M 688.125 1512.480469 L 688.125 1538.667969 L 638.019531 1466.628906 L 648.675781 1450.578125 L 605.953125 1418.476562 L 645.878906 1403.457031 L 688.125 1512.480469"/><path fill="#36538C" d="M 688.125 1512.480469 L 688.125 1538.667969 L 738.226562 1466.628906 L 727.546875 1450.578125 L 770.265625 1418.476562 L 730.34375 1403.457031 L 688.125 1512.480469"/><path fill="#9BDFF8" d="M 658.195312 1385.347656 L 687.964844 1407.363281 L 663.8125 1432.863281 L 632.613281 1408.472656 L 658.195312 1385.347656"/><path fill="#9BDFF8" d="M 717.738281 1385.347656 L 687.964844 1407.363281 L 712.121094 1432.863281 L 743.316406 1408.472656 L 717.738281 1385.347656"/><path fill="#51558F" d="M 753.523438 1250.214844 L 751.386719 1305.203125 C 748.617188 1304.117188 746.058594 1306.308594 746.058594 1306.308594 L 744.1875 1327.796875 L 738.121094 1331.070312 L 738.121094 1294.324219 L 735.433594 1251.664062 C 734.035156 1238.996094 717.027344 1239.972656 717.027344 1239.972656 C 700.414062 1246.730469 656.003906 1240.816406 656.003906 1240.816406 C 646.722656 1243.640625 644.453125 1263.730469 644.453125 1263.730469 L 637.808594 1297.203125 L 637.808594 1327.878906 L 631.640625 1322.625 L 631.429688 1307.65625 C 627.394531 1304.304688 624.570312 1305.203125 624.570312 1305.203125 L 621.355469 1258.1875 C 622.542969 1241.421875 637.808594 1222.945312 637.808594 1222.945312 C 637.808594 1222.945312 662.757812 1200.558594 715.65625 1210.40625 C 715.65625 1210.40625 733.375 1212.648438 735.90625 1205.890625 C 735.90625 1205.890625 741.523438 1212.9375 739.546875 1219.40625 C 739.546875 1219.40625 747.429688 1220.332031 751.941406 1214.101562 C 751.941406 1214.101562 762.433594 1237.382812 753.523438 1250.214844"/><path fill="#F0AC92" d="M 886.796875 1409.078125 L 814.542969 1409.078125 L 814.542969 1339.019531 L 886.796875 1339.019531 L 886.796875 1409.078125"/><path fill="#F8BFA7" d="M 924.769531 1218.535156 C 908.789062 1166.34375 861.824219 1161.726562 850.671875 1161.355469 C 839.515625 1161.726562 792.550781 1166.34375 776.570312 1218.535156 C 776.570312 1218.535156 775.542969 1265.839844 784.691406 1329.644531 C 785.640625 1336.140625 790.46875 1341.816406 795.320312 1345.988281 C 810.429688 1358.949219 831.210938 1374.339844 850.671875 1375.738281 C 870.132812 1374.339844 890.910156 1358.949219 906.019531 1345.988281 C 910.875 1341.816406 915.699219 1336.140625 916.648438 1329.644531 C 925.800781 1265.839844 924.769531 1218.535156 924.769531 1218.535156"/><path fill="#F8BFA7" d="M 929.542969 1269.378906 C 922.265625 1268.21875 915.039062 1276.214844 913.40625 1287.25 C 911.742188 1298.285156 916.304688 1308.183594 923.585938 1309.347656 C 930.863281 1310.535156 938.085938 1302.535156 939.722656 1291.5 C 941.382812 1280.464844 936.820312 1270.566406 929.542969 1269.378906"/><path fill="#F8BFA7" d="M 771.796875 1269.378906 C 764.519531 1270.566406 759.957031 1280.464844 761.589844 1291.5 C 763.253906 1302.535156 770.476562 1310.535156 777.757812 1309.347656 C 785.035156 1308.183594 789.597656 1298.285156 787.960938 1287.25 C 786.300781 1276.214844 779.074219 1268.21875 771.796875 1269.378906"/><g clip-path="url(#i)"><path fill="#F0AC92" d="M 1009.839844 1464.464844 C 1005.332031 1435.082031 980.515625 1426.027344 980.515625 1426.027344 L 886.796875 1390.785156 L 814.542969 1390.785156 L 720.824219 1426.027344 C 720.824219 1426.027344 695.984375 1435.082031 691.472656 1464.464844 L 682.453125 1565.042969 L 1018.886719 1565.042969 L 1009.839844 1464.464844"/><path fill="#D1F0FC" d="M 1009.839844 1464.464844 C 1005.332031 1435.082031 980.515625 1426.027344 980.515625 1426.027344 L 886.796875 1390.785156 L 850.671875 1401.714844 L 814.542969 1390.785156 L 720.824219 1426.027344 C 720.824219 1426.027344 695.984375 1435.082031 691.472656 1464.464844 L 682.453125 1565.042969 L 1018.886719 1565.042969 L 1009.839844 1464.464844"/></g><path fill="#EC3655" d="M 860.164062 1432.070312 L 868.363281 1402.347656 L 832.976562 1402.347656 L 841.203125 1432.070312 L 860.164062 1432.070312"/><g clip-path="url(#j)"><path fill="#CC2E48" d="M 860.164062 1432.070312 L 841.203125 1432.070312 L 822.375 1565.042969 L 878.9375 1565.042969 L 860.164062 1432.070312"/></g><g clip-path="url(#k)"><path fill="#2F497B" d="M 850.484375 1532.492188 L 798.324219 1396.882812 L 720.824219 1426.027344 C 720.824219 1426.027344 695.984375 1435.082031 691.472656 1464.464844 L 682.453125 1565.039062 L 850.484375 1565.039062 L 850.484375 1532.492188"/></g><g clip-path="url(#l)"><path fill="#2F497B" d="M 850.855469 1532.492188 L 903.015625 1396.882812 L 980.515625 1426.027344 C 980.515625 1426.027344 1005.332031 1435.082031 1009.839844 1464.464844 L 1018.886719 1565.039062 L 850.855469 1565.039062 L 850.855469 1532.492188"/></g><g clip-path="url(#m)"><path fill="#36538C" d="M 850.855469 1532.492188 L 850.855469 1565.039062 L 788.515625 1475.445312 L 801.804688 1455.488281 L 748.671875 1415.574219 L 798.324219 1396.882812 L 850.855469 1532.492188"/></g><g clip-path="url(#n)"><path fill="#36538C" d="M 850.855469 1532.492188 L 850.855469 1565.039062 L 913.167969 1475.445312 L 899.902344 1455.488281 L 953.011719 1415.574219 L 903.382812 1396.882812 L 850.855469 1532.492188"/></g><path fill="#9BDFF8" d="M 813.648438 1374.367188 L 850.671875 1401.714844 L 820.609375 1433.445312 L 781.792969 1403.113281 L 813.648438 1374.367188"/><path fill="#9BDFF8" d="M 887.695312 1374.367188 L 850.671875 1401.714844 L 880.730469 1433.445312 L 919.523438 1403.113281 L 887.695312 1374.367188"/><path fill="#51558F" d="M 781.84375 1297.519531 L 785.351562 1297.519531 L 788.277344 1259.425781 L 802.492188 1216.871094 C 802.492188 1216.871094 807.398438 1198.394531 805.894531 1190.578125 C 805.894531 1190.578125 811.40625 1197.363281 826.460938 1197.363281 C 826.460938 1197.363281 869.050781 1200.480469 897.109375 1194.75 C 897.109375 1194.75 908.660156 1198.394531 909.632812 1207.261719 L 907.394531 1235.429688 L 915.671875 1297.519531 L 920.605469 1297.519531 L 922.949219 1270.777344 C 922.949219 1270.777344 926.117188 1268.058594 929.542969 1269.378906 L 932.207031 1201.007812 C 932.207031 1201.007812 926.984375 1170.753906 913.0625 1161.355469 C 913.0625 1161.355469 842.335938 1127.988281 788.277344 1167.085938 C 788.277344 1167.085938 769.316406 1190.050781 767.816406 1210.933594 L 771.796875 1269.378906 C 771.796875 1269.378906 775.332031 1268.296875 780.339844 1272.46875 L 781.84375 1297.519531"/><g clip-path="url(#o)"><path fill="#DAD1B4" d="M 594.703125 723.867188 C 606.277344 707.992188 623.75 697.371094 641.652344 689.757812 C 676.0625 675.382812 713.582031 670.769531 750.671875 667.660156 C 752.921875 667.445312 935.261719 830.058594 935.261719 831.238281 C 935.261719 853.015625 933.546875 875.648438 922.503906 894.3125 C 905.566406 923.058594 870.515625 935.824219 837.5 940.117188 C 804.484375 944.40625 770.289062 942.582031 738.34375 952.023438 C 731.484375 954.058594 724.515625 956.742188 719.371094 961.570312 C 702.96875 976.265625 707.792969 1003.9375 695.144531 1021.960938 C 683.246094 992.355469 668.667969 960.175781 639.832031 946.550781 C 626.644531 940.328125 610.460938 938.078125 601.777344 926.277344 C 596.953125 919.734375 595.34375 911.261719 593.84375 903.109375 C 588.054688 874.683594 574.976562 750.898438 594.703125 723.867188 Z M 594.703125 723.867188"/></g><path fill="#EAD4AF" d="M 757.210938 598.472656 C 768.144531 571.335938 798.695312 563.074219 824.957031 560.285156 C 903.53125 552.027344 986.5 549.558594 1058.105469 583.242188 C 1073.328125 590.535156 1088.121094 599.546875 1098.839844 612.417969 C 1114.597656 631.402344 1119.742188 657.363281 1120.066406 682.140625 C 1120.386719 706.917969 1116.3125 731.375 1115.777344 756.152344 C 1115.242188 776.855469 1116.636719 799.703125 1103.558594 815.792969 C 1089.515625 833.0625 1064.859375 835.636719 1044.277344 843.789062 C 1038.703125 846.042969 1033.34375 848.832031 1029.59375 853.335938 C 1025.625 858.058594 1023.910156 864.0625 1022.304688 869.964844 C 1019.195312 881.546875 1015.871094 892.917969 1012.761719 904.503906 C 996.363281 892.273438 988.75 871.464844 975.136719 856.125 C 964.203125 844.21875 950.375 836.28125 935.261719 831.027344 C 916.824219 824.589844 750.886719 673.128906 750.671875 667.445312 C 750.027344 644.703125 749.277344 618.101562 757.210938 598.472656 Z M 757.210938 598.472656"/><path fill="#B4AC88" d="M 876.519531 821.265625 C 847.359375 819.546875 816.167969 818.796875 792.371094 802.0625 C 774.574219 789.621094 763.210938 769.5625 757.316406 748.644531 C 751.636719 727.726562 750.886719 705.738281 750.886719 683.964844 C 750.886719 678.921875 750.671875 673.453125 750.5625 667.875 C 752.816406 667.660156 754.851562 667.550781 756.996094 667.335938 C 804.695312 663.582031 856.578125 661.972656 896.132812 689.003906 C 906.855469 696.300781 916.5 705.738281 922.183594 717.324219 C 927.863281 728.90625 929.792969 742.101562 930.972656 754.867188 C 933.546875 779.214844 934.726562 803.671875 934.9375 828.023438 C 934.9375 829.09375 934.9375 830.273438 934.9375 831.347656 C 916.714844 824.910156 896.242188 822.445312 876.519531 821.265625 Z M 876.519531 821.265625"/><path fill="#FFF" d="M 845.800781 404.289062 L 752.582031 383.917969 C 752.339844 383.859375 752.109375 383.800781 751.867188 383.675781 C 750.136719 383.257812 748.476562 382.613281 746.988281 381.839844 C 743.726562 380.308594 740.992188 378.105469 739.507812 375.5 C 738.617188 373.96875 737.71875 371.476562 738.617188 368.699219 C 739.679688 365.550781 742.839844 363.128906 746.929688 361.644531 C 748.417969 361.113281 750.078125 360.753906 751.808594 360.511719 C 752.8125 360.398438 753.710938 360.167969 754.769531 360.167969 C 756.742188 360.167969 758.703125 360.398438 760.605469 360.8125 L 800.886719 369.644531 L 805.761719 370.703125 L 853.882812 381.195312 C 854.125 381.253906 854.355469 381.367188 854.597656 381.425781 C 856.328125 381.839844 857.988281 382.5 859.476562 383.203125 C 862.738281 384.804688 865.414062 386.9375 866.898438 389.542969 C 867.789062 391.085938 868.6875 393.566406 867.789062 396.355469 C 866.714844 399.492188 863.566406 401.925781 859.476562 403.402344 C 857.101562 404.230469 854.539062 404.832031 851.695312 404.832031 C 849.90625 404.832031 848.0625 404.589844 846.34375 404.230469 C 846.160156 404.171875 845.988281 404.230469 845.800781 404.171875 Z M 833.210938 384.503906 C 832.914062 385.808594 833.742188 387.109375 835.046875 387.410156 L 853.828125 391.503906 C 854.011719 391.558594 854.183594 391.558594 854.355469 391.558594 C 854.425781 391.558594 854.484375 391.503906 854.597656 391.503906 C 855.613281 391.433594 856.5 390.730469 856.800781 389.65625 C 857.101562 388.355469 856.257812 387.050781 854.898438 386.765625 L 854.597656 386.695312 L 836.117188 382.671875 C 834.816406 382.371094 833.5 383.203125 833.210938 384.503906 Z M 833.210938 384.503906" fill-rule="evenodd"/><path fill="#FFF" d="M 760.605469 391.144531 L 821.210938 404.355469 L 843.484375 409.210938 L 853.882812 411.460938 C 859.832031 412.761719 864.699219 415.898438 866.957031 419.816406 C 867.84375 421.410156 868.746094 423.839844 867.84375 426.621094 C 866.183594 431.601562 859.589844 435.09375 851.695312 435.09375 C 850.378906 435.09375 849.019531 434.863281 847.648438 434.679688 C 847.058594 434.5625 846.402344 434.621094 845.800781 434.449219 L 841.941406 433.617188 L 775.625 419.101562 L 769.632812 417.800781 L 752.582031 414.066406 C 746.632812 412.761719 741.765625 409.683594 739.507812 405.71875 C 738.617188 404.171875 737.71875 401.683594 738.617188 398.90625 C 739.679688 395.769531 742.839844 393.335938 746.929688 391.847656 C 748.417969 391.316406 750.078125 390.960938 751.808594 390.730469 C 752.8125 390.613281 753.710938 390.371094 754.769531 390.371094 C 756.742188 390.371094 758.703125 390.613281 760.605469 391.019531 Z M 835.761719 417.027344 L 853.828125 420.9375 C 854.011719 420.992188 854.183594 420.992188 854.355469 420.992188 C 855.488281 420.992188 856.5 420.222656 856.742188 419.101562 C 857.03125 417.800781 856.199219 416.496094 854.839844 416.199219 L 836.003906 412.046875 C 834.699219 411.757812 833.386719 412.589844 833.085938 413.890625 C 833.027344 414.308594 833.210938 414.59375 833.328125 414.953125 C 833.570312 415.78125 834.101562 416.554688 834.988281 416.785156 L 835.761719 416.96875 Z M 835.761719 417.027344" fill-rule="evenodd"/><path fill="#FFF" d="M 771.0625 423.65625 L 844.085938 439.660156 L 849.550781 440.835938 L 853.882812 441.792969 C 859.761719 443.09375 864.699219 446.171875 866.957031 450.136719 C 867.84375 451.742188 868.746094 454.160156 867.84375 456.953125 C 866.183594 461.933594 859.589844 465.425781 851.75 465.425781 C 850.738281 465.425781 849.722656 465.183594 848.71875 465.066406 C 847.832031 464.953125 846.816406 464.953125 845.859375 464.769531 L 843.84375 464.296875 L 761.019531 446.171875 L 756.257812 445.167969 L 752.582031 444.339844 C 746.632812 443.035156 741.765625 439.945312 739.507812 435.980469 C 738.203125 433.734375 737.902344 431.359375 738.617188 429.167969 C 740.277344 424.199219 746.875 420.707031 754.714844 420.707031 C 756.671875 420.707031 758.632812 420.9375 760.535156 421.351562 L 765.652344 422.480469 L 770.992188 423.65625 Z M 836.117188 442.320312 C 834.816406 442.023438 833.5 442.851562 833.210938 444.15625 C 832.914062 445.515625 833.742188 446.761719 835.046875 447.058594 L 845.746094 449.367188 L 850.738281 450.4375 L 853.828125 451.140625 C 854.011719 451.210938 854.183594 451.210938 854.355469 451.210938 C 855.488281 451.210938 856.5 450.4375 856.742188 449.308594 C 857.03125 448.003906 856.199219 446.703125 854.839844 446.402344 L 850.148438 445.398438 L 845.15625 444.269531 L 836.003906 442.320312 Z M 836.117188 442.320312" fill-rule="evenodd"/><g clip-path="url(#p)"><path fill="#FFF" d="M 760.476562 451.082031 L 842.125 468.917969 C 835.402344 483.722656 820.554688 494.085938 803.203125 494.085938 C 779.613281 494.085938 760.417969 474.960938 760.417969 451.441406 C 760.417969 451.324219 760.476562 451.210938 760.476562 451.082031 Z M 795.722656 484.96875 C 796.136719 483.664062 795.363281 482.304688 794.105469 481.945312 C 784.25 478.984375 776.398438 471.464844 773.078125 461.746094 C 772.605469 460.503906 771.234375 459.855469 769.988281 460.214844 C 768.742188 460.628906 768.027344 462.046875 768.445312 463.292969 C 772.304688 474.488281 781.390625 483.191406 792.746094 486.570312 C 792.976562 486.628906 793.21875 486.683594 793.460938 486.683594 C 794.523438 486.683594 795.480469 486.039062 795.777344 484.910156 Z M 795.722656 484.96875" fill-rule="evenodd"/></g><g clip-path="url(#q)"><path fill="#FFF" d="M 875.15625 309.878906 C 862.980469 326.988281 852.523438 341.800781 851.75 353.410156 L 851.75 375.328125 L 855.371094 376.101562 L 860.246094 377.160156 L 865.828125 378.40625 L 865.828125 353.882812 C 866.128906 350.332031 868.558594 345.296875 872.121094 339.371094 C 875.984375 332.972656 881.21875 325.570312 886.625 317.925781 C 888.285156 315.621094 889.65625 313.601562 890.601562 312.300781 C 892.148438 310.109375 893.519531 308.160156 894.59375 306.617188 C 900.886719 297.496094 909.683594 283.097656 915.863281 266.632812 C 920.199219 255.023438 923.289062 242.34375 923.289062 229.789062 C 923.289062 197.265625 910.039062 167.773438 888.585938 146.445312 C 867.140625 125.058594 837.605469 111.859375 804.921875 111.859375 C 772.304688 111.859375 742.710938 125.058594 721.324219 146.445312 C 699.871094 167.832031 686.625 197.265625 686.625 229.789062 C 686.625 242.410156 689.714844 255.023438 694.046875 266.691406 C 700.226562 283.222656 709.023438 297.554688 715.320312 306.671875 C 716.277344 308.035156 717.636719 310.050781 719.308594 312.359375 C 720.195312 313.660156 721.683594 315.679688 723.285156 317.984375 C 727.621094 324.09375 731.839844 330.078125 735.230469 335.289062 C 738.617188 340.5 741.292969 345.296875 742.839844 349.386719 L 743.726562 351.695312 L 746.160156 352.222656 L 751.679688 353.410156 L 759.175781 355.070312 L 757.085938 347.726562 C 755.542969 342.332031 752.523438 336.40625 748.476562 329.949219 C 744.554688 323.621094 739.804688 316.980469 734.8125 309.878906 C 733.140625 307.503906 731.78125 305.613281 730.894531 304.367188 C 729.820312 302.824219 728.507812 300.988281 727.03125 298.800781 C 722.097656 291.628906 715.503906 281.023438 710.152344 268.765625 C 704.863281 256.683594 700.769531 243.117188 700.828125 229.789062 C 700.828125 201.117188 712.527344 175.117188 731.367188 156.339844 C 750.207031 137.558594 776.285156 125.890625 805.046875 125.890625 C 833.800781 125.890625 859.832031 137.558594 878.726562 156.339844 C 897.625 175.175781 909.324219 201.183594 909.324219 229.789062 C 909.324219 240.695312 906.59375 251.761719 902.730469 262.011719 C 897.082031 277 888.886719 290.269531 883.121094 298.742188 C 881.390625 301.21875 878.902344 304.726562 876.46875 308.21875 L 875.339844 309.878906 Z M 875.15625 309.878906"/></g><g clip-path="url(#r)"><path fill="#FFF" d="M 806.882812 97.644531 C 811.757812 97.644531 815.734375 93.667969 815.734375 88.8125 L 815.734375 53.570312 C 815.734375 48.714844 811.757812 44.738281 806.882812 44.738281 C 802.015625 44.738281 798.039062 48.714844 798.039062 53.570312 L 798.039062 88.8125 C 798.039062 93.667969 802.015625 97.644531 806.882812 97.644531 Z M 840.695312 104.445312 C 836.175781 102.613281 834.042969 97.402344 835.886719 92.964844 L 849.375 60.382812 C 851.210938 55.875 856.441406 53.742188 860.894531 55.585938 C 865.414062 57.421875 867.558594 62.632812 865.710938 67.070312 L 852.222656 99.652344 C 850.378906 104.160156 845.15625 106.292969 840.695312 104.445312 Z M 769.160156 105.992188 C 773.667969 104.160156 775.8125 98.949219 773.964844 94.496094 L 760.476562 61.917969 C 758.632812 57.421875 753.410156 55.289062 748.949219 57.121094 C 744.441406 58.964844 742.296875 64.175781 744.140625 68.613281 L 757.628906 101.195312 C 759.472656 105.691406 764.695312 107.824219 769.160156 105.992188 Z M 769.160156 105.992188" fill-rule="evenodd"/></g><path fill="#FFF" d="M 800.171875 200.355469 C 800.355469 198.867188 801.714844 197.863281 803.203125 198.039062 C 804.691406 198.222656 805.695312 199.582031 805.519531 201.058594 C 805.164062 203.789062 805.933594 206.394531 807.480469 208.472656 C 809.023438 210.476562 811.34375 211.964844 814.074219 212.308594 C 815.5625 212.496094 816.578125 213.855469 816.390625 215.34375 C 816.21875 216.816406 814.847656 217.820312 813.359375 217.648438 C 809.140625 217.058594 805.578125 214.859375 803.203125 211.722656 C 803.203125 211.664062 803.144531 211.664062 803.144531 211.605469 C 799.8125 212.609375 793.402344 213.554688 789.058594 207.8125 C 788.167969 206.625 788.410156 204.910156 789.597656 204.019531 C 790.785156 203.132812 792.503906 203.375 793.402344 204.550781 C 795.480469 207.285156 798.625 207.167969 800.703125 206.683594 C 800.113281 204.679688 799.929688 202.546875 800.230469 200.355469 Z M 849.605469 206.394531 Z M 805.636719 183.9375 Z M 801 181.160156 Z M 752.582031 245.722656 Z M 756.140625 222.5 Z M 760.777344 219.722656 Z M 755.726562 250.101562 Z M 844.027344 244.246094 C 846.988281 241.28125 848.835938 237.191406 848.835938 232.636719 C 848.835938 228.128906 846.988281 224.046875 844.027344 221.027344 C 841.050781 218.0625 836.949219 216.230469 832.371094 216.230469 C 830.894531 216.230469 829.640625 215.042969 829.640625 213.496094 C 829.640625 212.023438 830.894531 210.777344 832.371094 210.777344 C 838.433594 210.777344 843.898438 213.210938 847.832031 217.175781 C 851.808594 221.140625 854.242188 226.59375 854.242188 232.578125 C 854.242188 234.238281 854.066406 235.828125 853.710938 237.375 C 855.371094 237.847656 857.101562 238.144531 858.933594 238.144531 C 868.558594 238.144531 876.46875 230.734375 877.242188 221.3125 C 881.390625 218.835938 884.191406 214.269531 884.191406 209.058594 C 884.191406 202.902344 880.273438 197.621094 874.796875 195.675781 C 872.894531 199.226562 870.046875 202.074219 866.714844 204.078125 C 861.90625 206.925781 856.027344 207.929688 850.148438 206.453125 L 849.90625 206.394531 L 849.605469 206.210938 C 848.304688 205.566406 847.703125 203.90625 848.417969 202.601562 C 849.019531 201.472656 850.320312 200.886719 851.507812 201.183594 C 855.902344 202.304688 860.363281 201.53125 863.984375 199.398438 C 867.613281 197.265625 870.40625 193.773438 871.535156 189.390625 C 872.121094 187.085938 872.191406 184.710938 871.777344 182.460938 C 869.691406 177.367188 865.710938 172.742188 860.363281 169.664062 C 860.121094 169.609375 859.890625 169.550781 859.648438 169.492188 C 859.058594 169.308594 858.519531 169.019531 858.160156 168.546875 C 857.515625 168.246094 856.800781 167.890625 856.085938 167.660156 C 848.476562 164.753906 840.523438 165.226562 834.214844 168.304688 C 830.953125 163.324219 825.304688 160.074219 818.894531 160.074219 C 814.960938 160.074219 811.34375 161.320312 808.367188 163.394531 C 808.910156 164.753906 809.265625 166.171875 809.496094 167.589844 C 810.398438 173.101562 809.199219 178.910156 805.695312 183.824219 C 804.921875 184.894531 803.503906 185.308594 802.316406 184.652344 C 801 184.007812 800.414062 182.347656 801.128906 181.042969 L 801.359375 180.6875 C 804.035156 177.007812 804.921875 172.570312 804.21875 168.476562 C 803.792969 166.113281 802.902344 163.808594 801.472656 161.792969 C 798.511719 159.773438 794.949219 158.585938 791.144531 158.585938 C 781.390625 158.585938 773.378906 166.171875 772.777344 175.765625 C 769.632812 173.214844 765.585938 171.683594 761.25 171.683594 C 760.535156 171.683594 759.890625 171.742188 759.230469 171.796875 C 758.933594 172.039062 758.632812 172.214844 758.21875 172.269531 C 753.824219 173.402344 750.320312 176.179688 748.175781 179.800781 C 746.042969 183.40625 745.269531 187.859375 746.402344 192.238281 C 747.53125 196.621094 750.320312 200.113281 753.941406 202.246094 C 757.570312 204.378906 762.023438 205.152344 766.425781 204.019531 L 766.785156 203.964844 L 767.128906 203.964844 C 768.617188 203.964844 769.875 205.152344 769.875 206.683594 C 769.875 207.988281 768.917969 209.117188 767.730469 209.359375 C 761.90625 210.777344 756.085938 209.773438 751.265625 206.925781 C 746.457031 204.078125 742.710938 199.398438 741.222656 193.542969 L 741.167969 193.183594 C 740.9375 192.238281 740.808594 191.292969 740.695312 190.335938 C 732.3125 192.054688 726.019531 199.398438 726.019531 208.285156 C 726.019531 213.441406 728.160156 218.179688 731.667969 221.5 C 729.050781 224.632812 727.503906 228.667969 727.503906 233.109375 C 727.503906 236.011719 728.160156 238.792969 729.40625 241.226562 C 729.636719 241.398438 729.820312 241.582031 729.996094 241.8125 C 732.613281 245.492188 736.53125 247.738281 740.695312 248.453125 C 744.855469 249.15625 749.25 248.210938 752.9375 245.605469 C 756.613281 243 758.875 239.089844 759.589844 235 C 760.304688 230.859375 759.347656 226.46875 756.742188 222.800781 L 756.5 222.445312 C 755.84375 221.082031 756.382812 219.480469 757.6875 218.835938 C 758.875 218.234375 760.363281 218.59375 761.078125 219.664062 C 764.582031 224.578125 765.769531 230.386719 764.882812 235.886719 C 763.980469 241.398438 760.949219 246.550781 756.027344 250.042969 C 755.371094 250.515625 754.714844 250.933594 754 251.347656 C 754 251.53125 754 251.703125 754 251.890625 C 754 262.011719 762.207031 270.183594 772.363281 270.183594 C 777.769531 270.183594 782.648438 267.878906 785.96875 264.144531 L 786.210938 263.84375 C 786.507812 263.972656 786.796875 264.144531 787.039062 264.257812 C 787.339844 274.152344 784.191406 286.417969 777.414062 301.105469 C 793.335938 291.871094 804.863281 276.769531 812.058594 255.914062 C 812.414062 255.914062 812.773438 255.96875 813.1875 255.96875 C 818.410156 255.96875 822.988281 253.132812 825.488281 248.984375 C 824.945312 245.363281 823.285156 242.171875 820.855469 239.679688 C 817.878906 236.71875 813.773438 234.882812 809.199219 234.882812 C 807.722656 234.882812 806.464844 233.636719 806.464844 232.164062 C 806.464844 230.675781 807.652344 229.429688 809.199219 229.429688 C 815.261719 229.429688 820.726562 231.863281 824.648438 235.828125 C 828.164062 239.324219 830.480469 243.945312 830.953125 249.15625 C 831.066406 249.214844 831.183594 249.285156 831.308594 249.339844 C 831.667969 249.15625 832.140625 249.042969 832.554688 249.042969 C 837.074219 249.042969 841.167969 247.207031 844.199219 244.246094 Z M 821.085938 182.933594 C 820.195312 181.746094 820.4375 180.03125 821.625 179.140625 C 822.8125 178.253906 824.53125 178.496094 825.417969 179.683594 C 827.507812 182.40625 830.652344 182.289062 832.726562 181.804688 C 832.140625 179.800781 831.957031 177.667969 832.253906 175.476562 C 832.441406 173.988281 833.800781 172.984375 835.289062 173.160156 C 836.773438 173.34375 837.789062 174.703125 837.605469 176.179688 C 837.246094 178.910156 838.019531 181.515625 839.566406 183.59375 C 841.109375 185.597656 843.425781 187.027344 846.160156 187.441406 C 847.648438 187.617188 848.660156 188.976562 848.476562 190.464844 C 848.304688 191.9375 846.933594 192.941406 845.445312 192.769531 C 841.226562 192.179688 837.664062 189.992188 835.289062 186.84375 C 835.289062 186.785156 835.230469 186.785156 835.230469 186.726562 C 831.898438 187.730469 825.488281 188.675781 821.140625 182.933594 Z M 775.925781 232.808594 C 780.144531 233.40625 783.707031 235.597656 786.09375 238.734375 C 786.09375 238.792969 786.152344 238.792969 786.152344 238.851562 C 789.472656 237.847656 795.894531 236.902344 800.230469 242.644531 C 801.128906 243.832031 800.886719 245.546875 799.699219 246.4375 C 798.511719 247.324219 796.78125 247.082031 795.894531 245.90625 C 793.820312 243.171875 790.660156 243.300781 788.585938 243.773438 C 789.183594 245.777344 789.355469 247.910156 789.058594 250.101562 C 788.882812 251.589844 787.511719 252.59375 786.023438 252.417969 C 784.550781 252.234375 783.535156 250.875 783.707031 249.398438 C 784.066406 246.667969 783.292969 244.0625 781.746094 241.996094 C 780.203125 239.980469 777.886719 238.5625 775.152344 238.144531 C 773.667969 237.960938 772.664062 236.601562 772.835938 235.125 C 773.019531 233.636719 774.382812 232.636719 775.867188 232.808594 Z M 775.925781 232.808594" fill-rule="evenodd"/><path fill="#FFF" d="M 148.121094 369.316406 L 169.882812 369.316406 L 169.882812 318.847656 L 148.121094 318.847656 L 148.121094 369.316406"/><path fill="#FFF" d="M 148.121094 460.417969 L 169.882812 460.417969 L 169.882812 409.949219 L 148.121094 409.949219 L 148.121094 460.417969"/><path fill="#FFF" d="M 530.34375 293.488281 L 530.34375 332.992188 C 523.039062 340.140625 515.734375 347.378906 508.488281 354.589844 L 508.488281 202.019531 C 508.488281 191.96875 500.359375 183.808594 490.273438 183.808594 L 188.160156 183.808594 C 178.074219 183.808594 169.945312 191.96875 169.945312 202.019531 L 169.945312 278.183594 L 148.183594 278.183594 L 148.183594 202.019531 C 148.183594 179.960938 166.09375 162.058594 188.160156 162.058594 L 490.273438 162.058594 C 512.339844 162.058594 530.253906 179.960938 530.253906 202.019531 L 530.253906 293.488281 L 530.34375 293.488281"/><g clip-path="url(#s)"><path fill="#FFF" d="M 518.789062 491 C 522.488281 493.015625 526.339844 494.085938 530.34375 494.300781 L 530.34375 576.636719 C 530.34375 598.601562 512.339844 616.597656 490.273438 616.597656 L 188.160156 616.597656 C 166.09375 616.597656 148.183594 598.601562 148.183594 576.636719 L 148.183594 500.6875 L 169.945312 500.6875 L 169.945312 576.636719 C 169.945312 586.6875 178.074219 594.84375 188.160156 594.84375 L 490.273438 594.84375 C 500.359375 594.84375 508.582031 586.6875 508.582031 576.636719 L 508.582031 508.75 L 508.488281 508.75 L 508.488281 484.859375 L 509.867188 483.484375 C 512.1875 486.480469 515.183594 489.015625 518.789062 491"/></g><g clip-path="url(#t)"><path fill="#FFF" d="M 174.835938 470.988281 L 128.710938 470.988281 C 123.484375 470.988281 119.265625 475.175781 119.265625 480.398438 C 119.265625 485.625 123.484375 489.777344 128.710938 489.777344 L 174.835938 489.777344 C 178.042969 495.1875 183.945312 498.820312 190.699219 498.820312 C 200.878906 498.820312 209.160156 490.574219 209.160156 480.371094 C 209.160156 470.195312 200.878906 461.917969 190.699219 461.917969 C 183.945312 461.917969 178.042969 465.550781 174.835938 470.988281"/></g><g clip-path="url(#u)"><path fill="#FFF" d="M 174.867188 379.855469 L 128.710938 379.855469 C 123.484375 379.855469 119.265625 384.132812 119.265625 389.296875 C 119.265625 394.519531 123.484375 398.765625 128.710938 398.765625 L 174.867188 398.765625 C 178.105469 404.144531 183.972656 407.75 190.699219 407.75 C 200.878906 407.75 209.160156 399.5 209.160156 389.296875 C 209.160156 379.125 200.878906 370.875 190.699219 370.875 C 183.972656 370.875 178.105469 374.480469 174.867188 379.855469"/></g><g clip-path="url(#v)"><path fill="#FFF" d="M 174.835938 288.875 L 128.710938 288.875 C 123.484375 288.875 119.265625 293.0625 119.265625 298.222656 C 119.265625 303.449219 123.484375 307.632812 128.710938 307.632812 L 174.835938 307.632812 C 178.042969 313.070312 183.945312 316.707031 190.699219 316.707031 C 200.878906 316.707031 209.160156 308.429688 209.160156 298.253906 C 209.160156 288.050781 200.878906 279.800781 190.699219 279.800781 C 183.945312 279.800781 178.042969 283.4375 174.835938 288.875"/></g><path fill="#FFF" d="M 566.503906 399.5 C 538.199219 427.851562 555.285156 410.40625 526.585938 439.0625 C 513.6875 425.925781 500.574219 414.867188 488.042969 402.097656 C 488.042969 402.003906 488.195312 401.488281 488.5625 401.089844 C 523.773438 365.984375 514.207031 375.671875 549.722656 340.84375 C 554.796875 335.800781 561.429688 331.859375 567.96875 328.804688 C 576.957031 324.496094 585.941406 327.398438 593.644531 335.25 C 601.105469 342.765625 604.3125 351.445312 598.933594 361.066406 C 594.867188 368.277344 589.03125 374.511719 583.957031 381.140625 C 583.34375 381.964844 582.582031 382.726562 581.785156 383.582031 L 579.25 386.121094 L 566.503906 399.5"/><path fill="#FFF" d="M 608.164062 401.882812 C 599.851562 410.40625 591.476562 418.71875 583.101562 427.179688 C 568.277344 441.996094 553.511719 456.90625 538.660156 471.722656 C 535.601562 474.808594 532.207031 476.429688 527.960938 474.136719 C 524.351562 472.121094 523.039062 468.761719 524.199219 464.972656 C 524.902344 462.894531 526.675781 461.0625 528.296875 459.441406 C 544.191406 443.371094 595.265625 392.199219 597.101562 390.425781 C 601.46875 386.210938 605.871094 386.121094 609.324219 389.90625 C 612.414062 393.117188 612.015625 397.882812 608.164062 401.882812"/><path fill="#FFF" d="M 470.039062 235.625 C 470.039062 240.390625 466.21875 244.238281 461.417969 244.238281 L 253.816406 244.238281 C 249.046875 244.238281 245.226562 240.390625 245.226562 235.625 C 245.226562 230.859375 249.046875 227.007812 253.816406 227.007812 L 461.417969 227.007812 C 466.21875 227.007812 470.039062 230.859375 470.039062 235.625"/><path fill="#FFF" d="M 470.039062 312.460938 C 470.039062 317.226562 466.21875 321.074219 461.417969 321.074219 L 253.816406 321.074219 C 249.046875 321.074219 245.226562 317.226562 245.226562 312.460938 C 245.226562 307.726562 249.046875 303.875 253.816406 303.875 L 461.417969 303.875 C 466.21875 303.875 470.039062 307.726562 470.039062 312.460938"/><path fill="#FFF" d="M 469.855469 387.554688 C 466.402344 391.007812 462.945312 394.460938 459.492188 397.941406 L 253.785156 397.941406 C 249.046875 397.941406 245.199219 394.09375 245.199219 389.328125 C 245.199219 384.5625 249.046875 380.710938 253.785156 380.710938 L 461.417969 380.710938 C 465.574219 380.710938 469.03125 383.644531 469.855469 387.554688"/><path fill="#FFF" d="M 516.375 449.605469 C 516.375 449.605469 429.691406 537.835938 415.019531 547.765625 C 415.019531 547.765625 383.109375 571.199219 367.03125 570.28125 C 366.574219 570.433594 366.269531 570.496094 365.902344 570.433594 L 361.925781 574.648438 C 361.164062 575.503906 360.09375 575.871094 359.085938 575.871094 C 358.167969 575.871094 357.25 575.597656 356.488281 574.894531 C 354.929688 573.488281 354.773438 571.042969 356.242188 569.425781 L 359.878906 565.574219 C 359.574219 564.71875 359.421875 563.894531 359.359375 563.039062 C 357.894531 546.96875 380.265625 514.402344 380.265625 514.402344 C 389.710938 499.402344 476 410.867188 476 410.867188 L 496.140625 430.019531 C 496.445312 430.019531 516.375 449.605469 516.375 449.605469"/></svg>