<?xml version="1.0" encoding="utf-8"?>
<svg viewBox="0 0 500 500" xmlns="http://www.w3.org/2000/svg">
  <defs>
    <clipPath id="p">
      <path d="M 760 451 L 843 451 L 843 494.085938 L 760 494.085938 Z M 760 451"/>
    </clipPath>
    <clipPath id="q">
      <path d="M 686.53125 111 L 923.378906 111 L 923.378906 379 L 686.53125 379 Z M 686.53125 111"/>
    </clipPath>
    <clipPath id="r">
      <path d="M 743 44.738281 L 867 44.738281 L 867 107 L 743 107 Z M 743 44.738281"/>
    </clipPath>
  </defs>
  <path fill="#082071" d="M 282.901 383.724 L 174.863 362.602 C 174.582 362.542 174.315 362.481 174.034 362.351 C 172.029 361.918 170.104 361.25 168.38 360.448 C 164.599 358.86 161.43 356.576 159.71 353.874 C 158.678 352.287 157.636 349.703 158.678 346.823 C 159.909 343.559 163.572 341.047 168.312 339.508 C 170.037 338.958 171.961 338.585 173.966 338.334 C 175.13 338.216 176.171 337.977 177.398 337.977 C 179.684 337.977 181.957 338.216 184.162 338.646 L 230.846 347.803 L 236.496 348.901 L 292.268 359.779 C 292.548 359.84 292.815 359.958 293.096 360.018 C 295.102 360.448 297.026 361.132 298.751 361.861 C 302.531 363.522 305.632 365.733 307.352 368.435 C 308.385 370.034 309.426 372.606 308.385 375.498 C 307.14 378.75 303.491 381.274 298.751 382.805 C 295.998 383.663 293.028 384.287 289.732 384.287 C 287.659 384.287 285.522 384.036 283.53 383.663 C 283.317 383.602 283.118 383.663 282.901 383.602 Z M 268.309 363.21 C 267.965 364.563 268.925 365.911 270.437 366.223 L 292.204 370.468 C 292.417 370.524 292.616 370.524 292.815 370.524 C 292.897 370.524 292.965 370.468 293.096 370.468 C 294.273 370.395 295.301 369.666 295.649 368.552 C 295.998 367.203 295.02 365.851 293.445 365.555 L 293.096 365.482 L 271.678 361.31 C 270.17 360.999 268.644 361.861 268.309 363.21 Z M 268.309 363.21" fill-rule="evenodd" style=""/>
  <path fill="#082071" d="M 184.162 370.095 L 254.402 383.793 L 280.216 388.827 L 292.268 391.16 C 299.163 392.509 304.803 395.761 307.42 399.823 C 308.448 401.476 309.494 403.995 308.448 406.879 C 306.524 412.043 298.882 415.663 289.732 415.663 C 288.207 415.663 286.631 415.425 285.042 415.234 C 284.358 415.113 283.598 415.173 282.901 414.995 L 278.428 414.133 L 201.569 399.082 L 194.624 397.733 L 174.863 393.861 C 167.968 392.509 162.327 389.317 159.71 385.206 C 158.678 383.602 157.636 381.022 158.678 378.143 C 159.909 374.891 163.572 372.367 168.312 370.824 C 170.037 370.273 171.961 369.905 173.966 369.666 C 175.13 369.544 176.171 369.293 177.398 369.293 C 179.684 369.293 181.957 369.544 184.162 369.966 Z M 271.266 396.932 L 292.204 400.986 C 292.417 401.042 292.616 401.042 292.815 401.042 C 294.128 401.042 295.301 400.245 295.581 399.082 C 295.916 397.733 294.952 396.381 293.377 396.073 L 271.546 391.768 C 270.034 391.468 268.513 392.331 268.164 393.679 C 268.097 394.113 268.309 394.408 268.445 394.781 C 268.726 395.64 269.342 396.441 270.369 396.68 L 271.266 396.871 Z M 271.266 396.932" fill-rule="evenodd" style=""/>
  <path fill="#082071" d="M 196.281 403.805 L 280.913 420.398 L 287.247 421.617 L 292.268 422.61 C 299.081 423.958 304.803 427.15 307.42 431.261 C 308.448 432.925 309.494 435.432 308.448 438.328 C 306.524 443.492 298.882 447.113 289.796 447.113 C 288.623 447.113 287.446 446.862 286.283 446.74 C 285.255 446.623 284.078 446.623 282.969 446.433 L 280.633 445.942 L 184.641 427.15 L 179.123 426.109 L 174.863 425.25 C 167.968 423.897 162.327 420.694 159.71 416.583 C 158.198 414.254 157.849 411.792 158.678 409.519 C 160.602 404.368 168.248 400.747 177.334 400.747 C 179.603 400.747 181.875 400.986 184.08 401.415 L 190.011 402.586 L 196.199 403.805 Z M 271.678 423.156 C 270.17 422.848 268.644 423.707 268.309 425.06 C 267.965 426.469 268.925 427.761 270.437 428.069 L 282.837 430.463 L 288.623 431.573 L 292.204 432.302 C 292.417 432.374 292.616 432.374 292.815 432.374 C 294.128 432.374 295.301 431.573 295.581 430.402 C 295.916 429.049 294.952 427.701 293.377 427.389 L 287.939 426.348 L 282.154 425.177 L 271.546 423.156 Z M 271.678 423.156" fill-rule="evenodd" style=""/>
  <g clip-path="url(#p)" transform="matrix(1.158974, 0, 0, 1.036841, -697.359863, -35.45966)" style="">
    <path fill="#082071" d="M 760.476562 451.082031 L 842.125 468.917969 C 835.402344 483.722656 820.554688 494.085938 803.203125 494.085938 C 779.613281 494.085938 760.417969 474.960938 760.417969 451.441406 C 760.417969 451.324219 760.476562 451.210938 760.476562 451.082031 Z M 795.722656 484.96875 C 796.136719 483.664062 795.363281 482.304688 794.105469 481.945312 C 784.25 478.984375 776.398438 471.464844 773.078125 461.746094 C 772.605469 460.503906 771.234375 459.855469 769.988281 460.214844 C 768.742188 460.628906 768.027344 462.046875 768.445312 463.292969 C 772.304688 474.488281 781.390625 483.191406 792.746094 486.570312 C 792.976562 486.628906 793.21875 486.683594 793.460938 486.683594 C 794.523438 486.683594 795.480469 486.039062 795.777344 484.910156 Z M 795.722656 484.96875" fill-rule="evenodd"/>
  </g>
  <g clip-path="url(#q)" transform="matrix(1.158974, 0, 0, 1.036841, -697.359863, -35.45966)" style="">
    <path fill="#082071" d="M 875.15625 309.878906 C 862.980469 326.988281 852.523438 341.800781 851.75 353.410156 L 851.75 375.328125 L 855.371094 376.101562 L 860.246094 377.160156 L 865.828125 378.40625 L 865.828125 353.882812 C 866.128906 350.332031 868.558594 345.296875 872.121094 339.371094 C 875.984375 332.972656 881.21875 325.570312 886.625 317.925781 C 888.285156 315.621094 889.65625 313.601562 890.601562 312.300781 C 892.148438 310.109375 893.519531 308.160156 894.59375 306.617188 C 900.886719 297.496094 909.683594 283.097656 915.863281 266.632812 C 920.199219 255.023438 923.289062 242.34375 923.289062 229.789062 C 923.289062 197.265625 910.039062 167.773438 888.585938 146.445312 C 867.140625 125.058594 837.605469 111.859375 804.921875 111.859375 C 772.304688 111.859375 742.710938 125.058594 721.324219 146.445312 C 699.871094 167.832031 686.625 197.265625 686.625 229.789062 C 686.625 242.410156 689.714844 255.023438 694.046875 266.691406 C 700.226562 283.222656 709.023438 297.554688 715.320312 306.671875 C 716.277344 308.035156 717.636719 310.050781 719.308594 312.359375 C 720.195312 313.660156 721.683594 315.679688 723.285156 317.984375 C 727.621094 324.09375 731.839844 330.078125 735.230469 335.289062 C 738.617188 340.5 741.292969 345.296875 742.839844 349.386719 L 743.726562 351.695312 L 746.160156 352.222656 L 751.679688 353.410156 L 759.175781 355.070312 L 757.085938 347.726562 C 755.542969 342.332031 752.523438 336.40625 748.476562 329.949219 C 744.554688 323.621094 739.804688 316.980469 734.8125 309.878906 C 733.140625 307.503906 731.78125 305.613281 730.894531 304.367188 C 729.820312 302.824219 728.507812 300.988281 727.03125 298.800781 C 722.097656 291.628906 715.503906 281.023438 710.152344 268.765625 C 704.863281 256.683594 700.769531 243.117188 700.828125 229.789062 C 700.828125 201.117188 712.527344 175.117188 731.367188 156.339844 C 750.207031 137.558594 776.285156 125.890625 805.046875 125.890625 C 833.800781 125.890625 859.832031 137.558594 878.726562 156.339844 C 897.625 175.175781 909.324219 201.183594 909.324219 229.789062 C 909.324219 240.695312 906.59375 251.761719 902.730469 262.011719 C 897.082031 277 888.886719 290.269531 883.121094 298.742188 C 881.390625 301.21875 878.902344 304.726562 876.46875 308.21875 L 875.339844 309.878906 Z M 875.15625 309.878906"/>
  </g>
  <g clip-path="url(#r)" transform="matrix(1.158974, 0, 0, 1.036841, -697.359863, -35.45966)" style="">
    <path fill="#082071" d="M 806.882812 97.644531 C 811.757812 97.644531 815.734375 93.667969 815.734375 88.8125 L 815.734375 53.570312 C 815.734375 48.714844 811.757812 44.738281 806.882812 44.738281 C 802.015625 44.738281 798.039062 48.714844 798.039062 53.570312 L 798.039062 88.8125 C 798.039062 93.667969 802.015625 97.644531 806.882812 97.644531 Z M 840.695312 104.445312 C 836.175781 102.613281 834.042969 97.402344 835.886719 92.964844 L 849.375 60.382812 C 851.210938 55.875 856.441406 53.742188 860.894531 55.585938 C 865.414062 57.421875 867.558594 62.632812 865.710938 67.070312 L 852.222656 99.652344 C 850.378906 104.160156 845.15625 106.292969 840.695312 104.445312 Z M 769.160156 105.992188 C 773.667969 104.160156 775.8125 98.949219 773.964844 94.496094 L 760.476562 61.917969 C 758.632812 57.421875 753.410156 55.289062 748.949219 57.121094 C 744.441406 58.964844 742.296875 64.175781 744.140625 68.613281 L 757.628906 101.195312 C 759.472656 105.691406 764.695312 107.824219 769.160156 105.992188 Z M 769.160156 105.992188" fill-rule="evenodd"/>
  </g>
  <path fill="#2046C4" d="M 230.018 172.277 C 230.231 170.734 231.806 169.693 233.531 169.876 C 235.256 170.066 236.419 171.475 236.216 173.006 C 235.804 175.837 236.696 178.539 238.488 180.694 C 240.277 182.771 242.966 184.314 246.13 184.671 C 247.855 184.865 249.032 186.275 248.815 187.818 C 248.616 189.345 247.027 190.386 245.302 190.207 C 240.412 189.596 236.284 187.316 233.531 184.063 C 233.531 184.003 233.463 184.003 233.463 183.942 C 229.601 184.983 222.172 185.963 217.138 180.009 C 216.106 178.778 216.386 177 217.763 176.076 C 219.139 175.157 221.131 175.408 222.172 176.627 C 224.581 179.462 228.225 179.341 230.634 178.839 C 229.95 176.761 229.737 174.549 230.086 172.277 Z M 287.31 178.539 Z M 236.352 155.254 Z M 230.978 152.375 Z M 174.863 219.316 Z M 178.987 195.238 Z M 184.361 192.358 Z M 178.507 223.856 Z M 280.845 217.785 C 284.277 214.711 286.418 210.47 286.418 205.748 C 286.418 201.074 284.277 196.842 280.845 193.711 C 277.396 190.637 272.642 188.737 267.336 188.737 C 265.625 188.737 264.171 187.506 264.171 185.902 C 264.171 184.375 265.625 183.083 267.336 183.083 C 274.362 183.083 280.696 185.606 285.255 189.717 C 289.864 193.828 292.684 199.482 292.684 205.687 C 292.684 207.408 292.48 209.057 292.068 210.661 C 293.992 211.151 295.998 211.459 298.121 211.459 C 309.276 211.459 318.444 203.775 319.34 194.006 C 324.148 191.439 327.394 186.704 327.394 181.301 C 327.394 174.918 322.854 169.442 316.506 167.425 C 314.302 171.107 311.001 174.059 307.14 176.137 C 301.566 179.09 294.753 180.131 287.939 178.6 L 287.659 178.539 L 287.31 178.348 C 285.803 177.68 285.105 175.959 285.934 174.606 C 286.631 173.436 288.139 172.828 289.515 173.136 C 294.608 174.298 299.778 173.496 303.975 171.285 C 308.181 169.074 311.418 165.453 312.726 160.909 C 313.405 158.519 313.487 156.056 313.007 153.724 C 310.589 148.442 305.976 143.647 299.778 140.455 C 299.498 140.398 299.23 140.338 298.95 140.277 C 298.266 140.087 297.641 139.787 297.225 139.297 C 296.478 138.985 295.649 138.616 294.821 138.377 C 286.002 135.364 276.784 135.854 269.473 139.046 C 265.693 133.882 259.146 130.512 251.717 130.512 C 247.158 130.512 242.966 131.804 239.516 133.955 C 240.145 135.364 240.557 136.834 240.824 138.305 C 241.87 144.019 240.48 150.042 236.419 155.137 C 235.523 156.247 233.88 156.676 232.503 155.996 C 230.978 155.327 230.299 153.606 231.127 152.253 L 231.394 151.885 C 234.495 148.069 235.523 143.469 234.708 139.224 C 234.215 136.774 233.182 134.384 231.526 132.294 C 228.094 130.2 223.965 128.969 219.555 128.969 C 208.251 128.969 198.966 136.834 198.268 146.782 C 194.624 144.137 189.934 142.549 184.909 142.549 C 184.08 142.549 183.333 142.61 182.568 142.667 C 182.224 142.918 181.875 143.1 181.395 143.157 C 176.302 144.331 172.241 147.211 169.756 150.965 C 167.284 154.704 166.388 159.321 167.7 163.861 C 169.009 168.405 172.241 172.026 176.438 174.238 C 180.644 176.449 185.805 177.251 190.907 176.076 L 191.324 176.02 L 191.722 176.02 C 193.447 176.02 194.905 177.251 194.905 178.839 C 194.905 180.191 193.795 181.362 192.419 181.613 C 185.669 183.083 178.924 182.042 173.337 179.09 C 167.764 176.137 163.422 171.285 161.697 165.214 L 161.634 164.841 C 161.367 163.861 161.217 162.881 161.086 161.889 C 151.371 163.671 144.077 171.285 144.077 180.499 C 144.077 185.845 146.558 190.758 150.624 194.201 C 147.59 197.449 145.798 201.633 145.798 206.238 C 145.798 209.247 146.558 212.131 148.002 214.654 C 148.27 214.832 148.482 215.023 148.686 215.262 C 151.719 219.077 156.26 221.406 161.086 222.147 C 165.908 222.876 171.001 221.896 175.275 219.194 C 179.535 216.493 182.156 212.439 182.984 208.198 C 183.813 203.905 182.704 199.353 179.684 195.55 L 179.403 195.181 C 178.643 193.767 179.268 192.107 180.78 191.439 C 182.156 190.815 183.881 191.187 184.709 192.297 C 188.77 197.392 190.147 203.415 189.119 209.118 C 188.073 214.832 184.56 220.174 178.856 223.795 C 178.095 224.285 177.334 224.719 176.506 225.148 C 176.506 225.338 176.506 225.517 176.506 225.711 C 176.506 236.205 186.018 244.678 197.789 244.678 C 204.054 244.678 209.709 242.288 213.557 238.416 L 213.838 238.105 C 214.182 238.238 214.517 238.416 214.797 238.534 C 215.146 248.793 211.497 261.51 203.642 276.739 C 222.095 267.164 235.455 251.507 243.794 229.883 C 244.206 229.883 244.623 229.939 245.103 229.939 C 251.156 229.939 256.462 226.999 259.359 222.698 C 258.73 218.943 256.806 215.634 253.99 213.05 C 250.54 209.98 245.782 208.077 240.48 208.077 C 238.769 208.077 237.311 206.785 237.311 205.258 C 237.311 203.715 238.688 202.423 240.48 202.423 C 247.507 202.423 253.84 204.946 258.386 209.057 C 262.46 212.682 265.145 217.473 265.693 222.876 C 265.824 222.937 265.96 223.01 266.105 223.066 C 266.521 222.876 267.069 222.758 267.549 222.758 C 272.787 222.758 277.531 220.855 281.044 217.785 Z M 254.257 154.214 C 253.225 152.982 253.505 151.204 254.882 150.281 C 256.258 149.362 258.25 149.613 259.278 150.844 C 261.7 153.667 265.344 153.545 267.748 153.043 C 267.069 150.965 266.856 148.754 267.2 146.482 C 267.417 144.939 268.993 143.898 270.718 144.08 C 272.438 144.27 273.615 145.68 273.403 147.211 C 272.986 150.042 273.882 152.743 275.675 154.898 C 277.463 156.976 280.148 158.458 283.317 158.887 C 285.042 159.07 286.215 160.479 286.002 162.022 C 285.803 163.549 284.214 164.59 282.489 164.412 C 277.599 163.8 273.47 161.532 270.718 158.268 C 270.718 158.207 270.65 158.207 270.65 158.146 C 266.788 159.187 259.359 160.167 254.32 154.214 Z M 201.917 205.926 C 206.807 206.546 210.936 208.818 213.702 212.07 C 213.702 212.131 213.77 212.131 213.77 212.192 C 217.618 211.151 225.061 210.171 230.086 216.124 C 231.127 217.356 230.846 219.134 229.47 220.057 C 228.094 220.976 226.088 220.725 225.061 219.506 C 222.657 216.671 218.994 216.805 216.59 217.295 C 217.283 219.373 217.482 221.584 217.138 223.856 C 216.934 225.399 215.345 226.44 213.62 226.258 C 211.914 226.067 210.736 224.658 210.936 223.127 C 211.352 220.296 210.456 217.595 208.663 215.452 C 206.875 213.362 204.19 211.892 201.021 211.459 C 199.301 211.268 198.137 209.859 198.336 208.328 C 198.549 206.785 200.129 205.748 201.849 205.926 Z M 201.917 205.926" fill-rule="evenodd" style=""/>
</svg>