<?xml version="1.0" standalone="no"?>
<!DOCTYPE svg PUBLIC "-//W3C//DTD SVG 20010904//EN"
 "http://www.w3.org/TR/2001/REC-SVG-20010904/DTD/svg10.dtd">
<svg version="1.0" xmlns="http://www.w3.org/2000/svg"
 width="233.000000pt" height="326.000000pt" viewBox="0 0 233.000000 326.000000"
 preserveAspectRatio="xMidYMid meet">

<g transform="translate(0.000000,326.000000) scale(0.100000,-0.100000)"
fill="#03fc17" stroke="none">
<path d="M0 1630 l0 -1630 1165 0 1165 0 0 1630 0 1630 -1165 0 -1165 0 0
-1630z m1319 1135 c174 -46 321 -187 372 -358 17 -56 20 -86 17 -170 -6 -133
-31 -193 -154 -378 l-94 -141 0 -69 0 -69 -27 6 c-42 10 -43 12 -43 57 0 72
19 114 108 245 110 163 144 241 150 348 8 141 -39 255 -144 354 -97 90 -195
129 -325 130 -227 1 -422 -168 -461 -397 -22 -134 13 -236 154 -444 76 -113
107 -173 95 -185 -8 -9 -67 9 -67 20 0 6 -37 66 -81 131 -125 184 -169 290
-169 410 0 290 235 524 525 525 50 0 114 -7 144 -15z m-132 -1150 c229 -50
259 -59 273 -86 14 -25 3 -45 -31 -59 -25 -11 -59 -6 -246 34 -269 58 -281 62
-296 93 -10 22 -8 28 12 44 13 11 36 19 52 19 16 0 122 -20 236 -45z m13 -140
c118 -26 225 -53 238 -61 32 -21 37 -41 17 -64 -27 -30 -73 -26 -314 27 -231
51 -270 68 -257 111 7 22 57 43 86 37 8 -2 112 -25 230 -50z m-6 -135 c213
-47 249 -58 268 -85 12 -16 10 -23 -12 -45 -28 -28 -56 -26 -301 28 -220 49
-269 67 -269 102 0 22 36 50 65 50 11 0 123 -23 249 -50z m-19 -130 c83 -18
155 -35 162 -39 19 -10 -34 -71 -81 -92 -103 -47 -217 -1 -261 103 -22 54 -20
71 8 65 12 -3 90 -20 172 -37z m473 -262 c7 -7 12 -21 12 -33 0 -29 -19 -45
-52 -45 -44 0 -60 57 -24 82 17 12 51 9 64 -4z m182 -22 c0 -21 -6 -36 -15
-40 -8 -3 -15 -12 -15 -20 0 -11 15 -16 61 -18 l62 -3 30 -84 31 -84 31 84 32
84 42 3 c22 2 41 0 41 -5 0 -4 -38 -93 -83 -198 l-83 -190 -42 -3 c-23 -2 -42
-1 -42 2 0 3 11 31 25 62 14 31 25 61 25 68 0 6 -21 65 -47 131 -37 91 -49
113 -51 92 -2 -15 -9 -27 -18 -27 -11 0 -14 -20 -14 -100 l0 -100 -45 0 -45 0
0 100 c0 60 -4 100 -10 100 -5 0 -10 16 -10 35 0 19 4 35 10 35 5 0 14 18 20
41 9 31 19 44 43 54 53 24 67 20 67 -19z m-320 -166 l0 -180 -40 0 -40 0 0
180 0 180 40 0 40 0 0 -180z m-1006 -2 c31 -90 56 -166 56 -170 0 -5 -20 -8
-44 -8 -41 0 -45 2 -51 30 -6 29 -8 30 -66 30 -58 0 -60 -1 -70 -30 -10 -27
-15 -30 -56 -30 -39 0 -44 2 -38 18 4 9 29 81 56 160 26 79 51 147 54 152 4 6
28 10 54 10 l48 0 57 -162z m166 77 c0 -8 4 -15 9 -15 5 0 14 7 21 15 24 28
140 7 140 -26 0 -6 14 1 31 15 44 37 101 36 140 -3 28 -29 29 -32 29 -135 l0
-106 -40 0 -40 0 0 88 c0 96 -7 112 -52 112 -38 0 -48 -24 -48 -119 l0 -81
-40 0 -40 0 0 78 c0 87 -16 122 -55 122 -39 0 -55 -35 -55 -122 l0 -78 -40 0
-40 0 0 135 0 135 40 0 c29 0 40 -4 40 -15z m520 0 c0 -14 3 -13 25 1 33 22
99 13 131 -17 30 -28 48 -91 39 -137 -10 -54 -63 -102 -112 -102 -21 0 -49 7
-61 16 l-22 15 0 -80 0 -81 -45 0 -45 0 0 200 0 200 45 0 c34 0 45 -4 45 -15z
m460 -120 l0 -135 -40 0 -40 0 0 135 0 135 40 0 40 0 0 -135z"/>
<path d="M1310 1552 c0 -12 90 -33 103 -25 14 8 -12 20 -60 28 -27 4 -43 3
-43 -3z"/>
<path d="M1310 1421 c0 -14 9 -18 58 -26 26 -4 42 -3 42 3 0 11 -13 16 -67 27
-20 4 -33 3 -33 -4z"/>
<path d="M1310 1281 c0 -13 93 -32 104 -21 5 5 -9 13 -30 19 -48 13 -74 14
-74 2z"/>
<path d="M1020 1195 c0 -21 69 -92 98 -100 34 -10 26 11 -13 34 -20 11 -44 34
-53 51 -19 33 -32 39 -32 15z"/>
<path d="M381 769 c-7 -22 -15 -47 -18 -55 -4 -11 5 -14 35 -14 l41 0 -16 48
c-22 66 -28 69 -42 21z"/>
<path d="M1207 762 c-21 -23 -22 -76 -1 -96 37 -38 94 -8 94 48 0 57 -58 87
-93 48z"/>
</g>
</svg>
