<?xml version="1.0" encoding="utf-8"?>
<svg viewBox="0 0 500 500" xmlns="http://www.w3.org/2000/svg">
  <defs>
    <clipPath id="a">
      <path d="M 407 998 L 478.890625 998 L 478.890625 1322 L 407 1322 Z M 407 998"/>
    </clipPath>
    <clipPath id="b">
      <path d="M 114 1321 L 478.890625 1321 L 478.890625 1360.398438 L 114 1360.398438 Z M 114 1321"/>
    </clipPath>
    <clipPath id="c">
      <path d="M 87.472656 913 L 448 913 L 448 1104 L 87.472656 1104 Z M 87.472656 913"/>
    </clipPath>
    <clipPath id="d">
      <path d="M 407 895.496094 L 478 895.496094 L 478 964 L 407 964 Z M 407 895.496094"/>
    </clipPath>
  </defs>
  <path fill="#5CE1E6" d="M 83.835 309.002 C 83.823 309.374 83.78 309.738 83.78 310.114 L 83.78 446.639 L 154.882 446.639 L 154.882 310.114 C 154.882 309.738 154.843 309.374 154.827 309.002 Z M 83.835 309.002" style=""/>
  <path fill="#5CE1E6" d="M 176.776 240.521 L 247.878 240.521 L 247.878 446.639 L 176.776 446.639 Z M 176.776 240.521" style=""/>
  <path fill="#5CE1E6" d="M 272.921 187.792 L 344.022 187.792 L 344.022 446.639 L 272.921 446.639 Z M 272.921 187.792" style=""/>
  <g clip-path="url(#a)" style="" transform="matrix(1, 0, 0, 1.013877, -37.090633, -893.202454)">
    <path fill="#5CE1E6" d="M 407.734375 998.433594 L 478.835938 998.433594 L 478.835938 1321.503906 L 407.734375 1321.503906 Z M 407.734375 998.433594"/>
  </g>
  <path fill="#03989E" d="M 77.222 309.002 C 77.214 309.374 77.167 309.738 77.167 310.114 L 77.167 446.639 L 148.272 446.639 L 148.272 310.114 C 148.272 309.738 148.229 309.374 148.218 309.002 Z M 77.222 309.002" style=""/>
  <path fill="#5CE1E6" d="M 170.163 240.521 L 241.264 240.521 L 241.264 446.639 L 170.163 446.639 Z M 170.163 240.521" style=""/>
  <path fill="#03989E" d="M 266.307 187.792 L 337.413 187.792 L 337.413 446.639 L 266.307 446.639 Z M 266.307 187.792" style=""/>
  <path fill="#5CE1E6" d="M 364.03 119.086 L 435.132 119.086 L 435.132 446.639 L 364.03 446.639 Z M 364.03 119.086" style=""/>
  <g clip-path="url(#b)" style="" transform="matrix(1, 0, 0, 1.013877, -37.090633, -893.202454)">
    <path fill="#5CE1E6" d="M 114.257812 1321.503906 L 478.835938 1321.503906 L 478.835938 1360.507812 L 114.257812 1360.507812 Z M 114.257812 1321.503906"/>
  </g>
  <g clip-path="url(#c)" style="" transform="matrix(1, 0, 0, 1.013877, -37.090633, -893.202454)">
    <path fill="#EB5C5D" d="M 95.675781 1103.164062 L 87.542969 1089.332031 L 255.167969 990.828125 L 336.230469 990.828125 L 438.179688 913.246094 L 447.894531 926.015625 L 341.644531 1006.875 L 259.535156 1006.875 Z M 95.675781 1103.164062"/>
  </g>
  <path fill="#EB5C5D" d="M 430.022 23.005 L 386.968 23.31 L 403.151 44.297 L 419.339 65.287 Z M 430.022 23.005" style=""/>
  <g clip-path="url(#d)" transform="matrix(1, 0, 0, 1, -37.090633, -874.324829)">
    <path fill="#EB5C5D" d="M 460.15625 963.164062 L 407.6875 896.058594 L 477.472656 895.570312 Z M 440.429688 911.878906 L 452.707031 927.578125 L 456.757812 911.765625 Z M 440.429688 911.878906"/>
  </g>
</svg>