<?xml version="1.0" encoding="utf-8"?>
<svg viewBox="0 0 500 500" xmlns="http://www.w3.org/2000/svg">
  <defs>
    <clipPath id="i">
      <path d="M 324 962.390625 L 499.585938 962.390625 L 499.585938 1138 L 324 1138 Z M 324 962.390625"/>
    </clipPath>
    <clipPath id="j">
      <path d="M 324 962.390625 L 487 962.390625 L 487 1125 L 324 1125 Z M 324 962.390625"/>
    </clipPath>
    <clipPath id="k">
      <path d="M 95.421875 1231 L 210 1231 L 210 1366.558594 L 95.421875 1366.558594 Z M 95.421875 1231"/>
    </clipPath>
  </defs>
  <g clip-path="url(#i)" transform="matrix(1, 0, 0, 1, -42.375477, -939.408508)">
    <path fill="#3B5892" d="M 499.585938 1049.960938 C 499.585938 1051.394531 499.550781 1052.828125 499.480469 1054.257812 C 499.410156 1055.691406 499.304688 1057.117188 499.164062 1058.542969 C 499.023438 1059.972656 498.847656 1061.394531 498.636719 1062.8125 C 498.429688 1064.226562 498.183594 1065.640625 497.902344 1067.046875 C 497.625 1068.449219 497.308594 1069.847656 496.960938 1071.238281 C 496.613281 1072.628906 496.230469 1074.011719 495.816406 1075.382812 C 495.398438 1076.753906 494.949219 1078.113281 494.46875 1079.460938 C 493.984375 1080.8125 493.46875 1082.148438 492.921875 1083.472656 C 492.371094 1084.796875 491.792969 1086.105469 491.179688 1087.402344 C 490.566406 1088.699219 489.921875 1089.976562 489.246094 1091.242188 C 488.570312 1092.503906 487.863281 1093.75 487.128906 1094.980469 C 486.390625 1096.210938 485.625 1097.421875 484.828125 1098.613281 C 484.03125 1099.804688 483.207031 1100.976562 482.351562 1102.125 C 481.5 1103.277344 480.617188 1104.40625 479.710938 1105.515625 C 478.800781 1106.621094 477.863281 1107.707031 476.902344 1108.769531 C 475.9375 1109.832031 474.953125 1110.867188 473.9375 1111.882812 C 472.925781 1112.894531 471.886719 1113.882812 470.824219 1114.847656 C 469.761719 1115.808594 468.679688 1116.746094 467.570312 1117.652344 C 466.460938 1118.5625 465.332031 1119.445312 464.183594 1120.296875 C 463.03125 1121.152344 461.859375 1121.976562 460.667969 1122.773438 C 459.476562 1123.570312 458.265625 1124.335938 457.035156 1125.070312 C 455.808594 1125.808594 454.5625 1126.515625 453.296875 1127.191406 C 452.03125 1127.867188 450.753906 1128.511719 449.457031 1129.125 C 448.164062 1129.734375 446.851562 1130.316406 445.527344 1130.863281 C 444.203125 1131.414062 442.867188 1131.929688 441.519531 1132.410156 C 440.167969 1132.894531 438.808594 1133.34375 437.4375 1133.761719 C 436.066406 1134.175781 434.683594 1134.558594 433.292969 1134.90625 C 431.90625 1135.253906 430.507812 1135.570312 429.101562 1135.847656 C 427.695312 1136.128906 426.285156 1136.371094 424.867188 1136.582031 C 423.449219 1136.792969 422.027344 1136.96875 420.601562 1137.109375 C 419.175781 1137.25 417.746094 1137.355469 416.3125 1137.425781 C 414.882812 1137.496094 413.449219 1137.53125 412.015625 1137.53125 C 410.585938 1137.53125 409.152344 1137.496094 407.71875 1137.425781 C 406.289062 1137.355469 404.859375 1137.25 403.433594 1137.109375 C 402.007812 1136.96875 400.585938 1136.792969 399.167969 1136.582031 C 397.75 1136.371094 396.339844 1136.128906 394.933594 1135.847656 C 393.527344 1135.570312 392.128906 1135.253906 390.738281 1134.90625 C 389.347656 1134.558594 387.96875 1134.175781 386.597656 1133.761719 C 385.226562 1133.34375 383.867188 1132.894531 382.515625 1132.410156 C 381.167969 1131.929688 379.832031 1131.414062 378.507812 1130.863281 C 377.183594 1130.316406 375.871094 1129.734375 374.578125 1129.125 C 373.28125 1128.511719 372 1127.867188 370.738281 1127.191406 C 369.472656 1126.515625 368.226562 1125.808594 366.996094 1125.070312 C 365.769531 1124.335938 364.558594 1123.570312 363.367188 1122.773438 C 362.175781 1121.976562 361.003906 1121.152344 359.851562 1120.296875 C 358.703125 1119.445312 357.570312 1118.5625 356.464844 1117.652344 C 355.355469 1116.746094 354.273438 1115.808594 353.210938 1114.847656 C 352.148438 1113.882812 351.109375 1112.894531 350.097656 1111.882812 C 349.082031 1110.867188 348.09375 1109.832031 347.132812 1108.769531 C 346.171875 1107.707031 345.234375 1106.621094 344.324219 1105.515625 C 343.417969 1104.40625 342.535156 1103.277344 341.679688 1102.125 C 340.828125 1100.976562 340.003906 1099.804688 339.207031 1098.613281 C 338.410156 1097.421875 337.644531 1096.210938 336.90625 1094.980469 C 336.171875 1093.75 335.464844 1092.503906 334.789062 1091.242188 C 334.113281 1089.976562 333.46875 1088.699219 332.855469 1087.402344 C 332.242188 1086.105469 331.664062 1084.796875 331.113281 1083.472656 C 330.566406 1082.148438 330.050781 1080.8125 329.566406 1079.460938 C 329.085938 1078.113281 328.636719 1076.753906 328.21875 1075.382812 C 327.804688 1074.011719 327.421875 1072.628906 327.074219 1071.238281 C 326.722656 1069.847656 326.410156 1068.449219 326.132812 1067.046875 C 325.851562 1065.640625 325.605469 1064.226562 325.394531 1062.8125 C 325.1875 1061.394531 325.011719 1059.972656 324.871094 1058.542969 C 324.730469 1057.117188 324.625 1055.691406 324.554688 1054.257812 C 324.484375 1052.828125 324.449219 1051.394531 324.449219 1049.960938 C 324.449219 1048.527344 324.484375 1047.097656 324.554688 1045.664062 C 324.625 1044.234375 324.730469 1042.804688 324.871094 1041.378906 C 325.011719 1039.953125 325.1875 1038.53125 325.394531 1037.113281 C 325.605469 1035.695312 325.851562 1034.285156 326.132812 1032.878906 C 326.410156 1031.472656 326.722656 1030.074219 327.074219 1028.683594 C 327.421875 1027.292969 327.804688 1025.914062 328.21875 1024.542969 C 328.636719 1023.171875 329.085938 1021.808594 329.566406 1020.460938 C 330.050781 1019.109375 330.566406 1017.773438 331.113281 1016.449219 C 331.664062 1015.125 332.242188 1013.816406 332.855469 1012.519531 C 333.46875 1011.226562 334.113281 1009.945312 334.789062 1008.683594 C 335.464844 1007.417969 336.171875 1006.171875 336.90625 1004.941406 C 337.644531 1003.710938 338.410156 1002.503906 339.207031 1001.3125 C 340.003906 1000.121094 340.828125 998.949219 341.679688 997.796875 C 342.535156 996.644531 343.417969 995.515625 344.324219 994.410156 C 345.234375 993.300781 346.171875 992.214844 347.132812 991.152344 C 348.09375 990.09375 349.082031 989.054688 350.097656 988.039062 C 351.109375 987.027344 352.148438 986.039062 353.210938 985.078125 C 354.273438 984.113281 355.355469 983.179688 356.464844 982.269531 C 357.570312 981.359375 358.703125 980.480469 359.851562 979.625 C 361.003906 978.773438 362.175781 977.945312 363.367188 977.152344 C 364.558594 976.355469 365.769531 975.589844 366.996094 974.851562 C 368.226562 974.113281 369.472656 973.40625 370.738281 972.734375 C 372 972.058594 373.28125 971.414062 374.578125 970.800781 C 375.871094 970.1875 377.183594 969.605469 378.507812 969.058594 C 379.832031 968.511719 381.167969 967.996094 382.515625 967.511719 C 383.867188 967.027344 385.226562 966.578125 386.597656 966.164062 C 387.96875 965.746094 389.351562 965.363281 390.738281 965.015625 C 392.128906 964.667969 393.527344 964.355469 394.933594 964.074219 C 396.339844 963.796875 397.75 963.550781 399.167969 963.339844 C 400.585938 963.128906 402.007812 962.953125 403.433594 962.8125 C 404.859375 962.671875 406.289062 962.570312 407.71875 962.5 C 409.152344 962.425781 410.585938 962.390625 412.015625 962.390625 C 413.449219 962.390625 414.882812 962.425781 416.3125 962.5 C 417.746094 962.570312 419.175781 962.671875 420.601562 962.8125 C 422.027344 962.953125 423.449219 963.128906 424.867188 963.339844 C 426.285156 963.550781 427.695312 963.796875 429.101562 964.074219 C 430.507812 964.355469 431.90625 964.667969 433.292969 965.015625 C 434.683594 965.363281 436.066406 965.746094 437.4375 966.164062 C 438.808594 966.578125 440.167969 967.027344 441.519531 967.511719 C 442.867188 967.996094 444.203125 968.511719 445.527344 969.058594 C 446.851562 969.605469 448.164062 970.1875 449.457031 970.800781 C 450.753906 971.414062 452.03125 972.058594 453.296875 972.734375 C 454.5625 973.40625 455.808594 974.113281 457.035156 974.851562 C 458.265625 975.589844 459.476562 976.355469 460.667969 977.152344 C 461.859375 977.945312 463.03125 978.773438 464.183594 979.625 C 465.332031 980.480469 466.460938 981.359375 467.570312 982.269531 C 468.679688 983.179688 469.761719 984.113281 470.824219 985.078125 C 471.886719 986.039062 472.925781 987.027344 473.9375 988.039062 C 474.953125 989.054688 475.9375 990.09375 476.902344 991.152344 C 477.863281 992.214844 478.800781 993.300781 479.710938 994.410156 C 480.617188 995.515625 481.5 996.644531 482.351562 997.796875 C 483.207031 998.949219 484.03125 1000.121094 484.828125 1001.3125 C 485.625 1002.503906 486.390625 1003.710938 487.128906 1004.941406 C 487.863281 1006.171875 488.570312 1007.417969 489.246094 1008.683594 C 489.921875 1009.945312 490.566406 1011.226562 491.179688 1012.519531 C 491.792969 1013.816406 492.371094 1015.125 492.921875 1016.449219 C 493.46875 1017.773438 493.984375 1019.109375 494.46875 1020.460938 C 494.949219 1021.808594 495.398438 1023.171875 495.816406 1024.542969 C 496.230469 1025.914062 496.613281 1027.292969 496.960938 1028.683594 C 497.308594 1030.074219 497.625 1031.472656 497.902344 1032.878906 C 498.183594 1034.285156 498.429688 1035.695312 498.636719 1037.113281 C 498.847656 1038.53125 499.023438 1039.953125 499.164062 1041.378906 C 499.304688 1042.804688 499.410156 1044.234375 499.480469 1045.664062 C 499.550781 1047.097656 499.585938 1048.527344 499.585938 1049.960938 Z M 499.585938 1049.960938"/>
  </g>
  <g clip-path="url(#j)" transform="matrix(1, 0, 0, 1, -42.375477, -939.408508)">
    <path fill="#4C6CB5" d="M 412.015625 962.390625 C 363.652344 962.390625 324.449219 1001.597656 324.449219 1049.960938 C 324.449219 1070.707031 331.703125 1089.746094 343.761719 1104.746094 C 358.761719 1116.804688 377.796875 1124.058594 398.546875 1124.058594 C 446.910156 1124.058594 486.113281 1084.855469 486.113281 1036.488281 C 486.113281 1015.742188 478.859375 996.707031 466.800781 981.703125 C 451.800781 969.648438 432.765625 962.390625 412.015625 962.390625 Z M 412.015625 962.390625"/>
  </g>
  <path fill="#C0DAFC" d="M 322.933 96.634 L 370.085 49.482 L 417.238 96.634 L 397.031 96.634 L 397.031 163.998 L 343.144 163.998 L 343.144 96.634 Z M 322.933 96.634"/>
  <path fill="#F2B9A1" d="M 282.074 292.427 L 301.148 278.119 C 306.257 274.295 312.472 272.22 318.859 272.22 C 321.269 272.22 323.675 272.517 326.019 273.103 L 338.621 276.256 C 336.742 277.252 334.953 278.431 333.265 279.775 L 314.062 295.142 C 310.5 293.396 306.503 292.427 302.281 292.427 Z M 282.074 292.427"/>
  <path fill="#F4CFB3" d="M 376.378 278.947 L 329.226 319.373 C 329.226 308.716 323.035 299.502 314.054 295.127 L 333.261 279.763 C 339.371 274.881 346.96 272.22 354.781 272.22 C 360.125 272.22 365.39 273.459 370.175 275.849 Z M 376.378 278.947"/>
  <path fill="#FBE1CA" d="M 376.378 278.947 L 329.226 319.373 C 329.226 304.49 317.16 292.427 302.281 292.427 L 248.394 292.427 L 237.285 286.877 C 226.871 281.662 215.386 278.955 203.738 278.955 C 188.933 278.955 174.457 283.341 162.128 291.552 L 140.617 305.9 L 124.449 313.982 L 157.328 379.74 L 161.644 377.713 C 182.832 366.162 207.484 362.67 231.046 367.912 L 243.308 370.634 C 251.167 372.377 259.199 373.259 267.253 373.259 C 290.05 373.259 312.285 366.201 330.91 353.06 L 416.796 292.427 L 414.875 286.67 C 412 278.041 403.921 272.22 394.828 272.22 C 391.554 272.22 388.32 272.982 385.39 274.443 Z M 376.378 278.947"/>
  <path fill="#F4CFB3" d="M 261.863 312.634 L 329.226 312.634 L 329.226 326.107 L 261.863 326.107 Z M 261.863 312.634"/>
  <g clip-path="url(#k)" transform="matrix(1, 0, 0, 1, -42.375477, -939.408508)">
    <path fill="#559B2D" d="M 149.308594 1366.558594 L 209.933594 1339.613281 L 156.046875 1231.835938 L 95.421875 1258.78125 Z M 149.308594 1366.558594"/>
  </g>
  <path fill="#6BC13B" d="M 77.847 308.353 L 114.648 381.955 C 117.867 388.396 125.585 391.166 132.167 388.24 L 156.23 377.552 L 113.671 292.427 Z M 77.847 308.353"/>
  <path fill="#3B5892" d="M 261.863 164.443 C 261.863 165.877 261.828 167.306 261.757 168.74 C 261.687 170.17 261.582 171.599 261.445 173.025 C 261.304 174.451 261.128 175.873 260.917 177.291 C 260.707 178.709 260.46 180.119 260.183 181.525 C 259.902 182.931 259.589 184.33 259.242 185.72 C 258.894 187.111 258.511 188.49 258.093 189.861 C 257.679 191.232 257.23 192.595 256.746 193.943 C 256.261 195.291 255.746 196.631 255.199 197.955 C 254.652 199.275 254.07 200.588 253.457 201.881 C 252.843 203.177 252.199 204.459 251.523 205.72 C 250.847 206.986 250.144 208.232 249.406 209.463 C 248.667 210.689 247.902 211.9 247.105 213.091 C 246.312 214.283 245.484 215.455 244.632 216.607 C 243.777 217.759 242.898 218.888 241.988 219.994 C 241.078 221.103 240.144 222.189 239.179 223.248 C 238.218 224.31 237.23 225.349 236.214 226.361 C 235.203 227.377 234.164 228.365 233.105 229.326 C 232.042 230.287 230.957 231.224 229.847 232.134 C 228.742 233.041 227.613 233.924 226.46 234.779 C 225.308 235.631 224.136 236.455 222.945 237.252 C 221.753 238.049 220.542 238.814 219.316 239.552 C 218.085 240.291 216.839 240.994 215.574 241.67 C 214.312 242.345 213.031 242.99 211.738 243.603 C 210.441 244.216 209.132 244.795 207.808 245.345 C 206.484 245.892 205.148 246.408 203.796 246.892 C 202.449 247.373 201.085 247.826 199.714 248.24 C 198.343 248.658 196.964 249.037 195.574 249.384 C 194.183 249.736 192.785 250.049 191.378 250.33 C 189.972 250.607 188.562 250.853 187.144 251.064 C 185.726 251.275 184.304 251.447 182.878 251.588 C 181.453 251.728 180.023 251.834 178.593 251.904 C 177.16 251.974 175.73 252.009 174.296 252.009 C 172.863 252.009 171.429 251.974 170 251.904 C 168.566 251.834 167.14 251.728 165.71 251.588 C 164.285 251.447 162.863 251.275 161.445 251.064 C 160.031 250.853 158.617 250.607 157.21 250.33 C 155.804 250.049 154.41 249.736 153.019 249.384 C 151.628 249.037 150.246 248.658 148.875 248.24 C 147.503 247.826 146.144 247.373 144.796 246.892 C 143.445 246.408 142.109 245.892 140.785 245.345 C 139.46 244.795 138.152 244.216 136.855 243.603 C 135.558 242.99 134.281 242.345 133.015 241.67 C 131.753 240.994 130.503 240.291 129.277 239.552 C 128.046 238.814 126.835 238.049 125.644 237.252 C 124.453 236.455 123.281 235.631 122.132 234.779 C 120.98 233.924 119.851 233.041 118.742 232.134 C 117.636 231.224 116.55 230.287 115.488 229.326 C 114.425 228.365 113.39 227.377 112.375 226.361 C 111.363 225.349 110.375 224.31 109.41 223.248 C 108.449 222.189 107.511 221.103 106.605 219.994 C 105.695 218.888 104.812 217.759 103.96 216.607 C 103.105 215.455 102.281 214.283 101.484 213.091 C 100.687 211.9 99.921 210.689 99.187 209.463 C 98.449 208.232 97.742 206.986 97.066 205.72 C 96.39 204.459 95.746 203.177 95.132 201.881 C 94.523 200.588 93.941 199.275 93.394 197.955 C 92.843 196.631 92.328 195.291 91.847 193.943 C 91.363 192.595 90.914 191.232 90.496 189.861 C 90.082 188.49 89.699 187.111 89.351 185.72 C 89.003 184.33 88.687 182.931 88.41 181.525 C 88.128 180.119 87.886 178.709 87.675 177.291 C 87.464 175.873 87.289 174.451 87.148 173.025 C 87.007 171.599 86.902 170.17 86.832 168.74 C 86.761 167.306 86.726 165.877 86.726 164.443 C 86.726 163.009 86.761 161.576 86.832 160.146 C 86.902 158.713 87.007 157.283 87.148 155.857 C 87.289 154.431 87.464 153.009 87.675 151.591 C 87.886 150.174 88.128 148.763 88.41 147.357 C 88.687 145.951 89.003 144.552 89.351 143.166 C 89.699 141.775 90.082 140.392 90.496 139.021 C 90.914 137.65 91.363 136.291 91.847 134.939 C 92.328 133.591 92.843 132.256 93.394 130.931 C 93.941 129.607 94.523 128.299 95.132 127.002 C 95.746 125.705 96.39 124.427 97.066 123.162 C 97.742 121.896 98.449 120.65 99.187 119.424 C 99.921 118.193 100.687 116.982 101.484 115.791 C 102.281 114.599 103.105 113.427 103.96 112.275 C 104.812 111.127 105.695 109.998 106.605 108.888 C 107.511 107.779 108.449 106.697 109.41 105.634 C 110.375 104.572 111.363 103.533 112.375 102.521 C 113.39 101.509 114.425 100.521 115.488 99.556 C 116.55 98.595 117.636 97.658 118.742 96.752 C 119.851 95.841 120.98 94.959 122.132 94.107 C 123.281 93.252 124.453 92.427 125.644 91.631 C 126.835 90.834 128.046 90.068 129.277 89.33 C 130.503 88.595 131.753 87.888 133.015 87.213 C 134.281 86.537 135.558 85.892 136.855 85.279 C 138.152 84.666 139.46 84.088 140.785 83.537 C 142.109 82.99 143.445 82.474 144.796 81.99 C 146.144 81.509 147.503 81.06 148.875 80.642 C 150.246 80.228 151.628 79.845 153.019 79.498 C 154.41 79.15 155.804 78.834 157.21 78.556 C 158.617 78.275 160.031 78.029 161.445 77.822 C 162.863 77.611 164.285 77.435 165.71 77.295 C 167.14 77.154 168.566 77.049 170 76.978 C 171.429 76.908 172.863 76.873 174.296 76.873 C 175.73 76.873 177.16 76.908 178.593 76.978 C 180.023 77.049 181.453 77.154 182.878 77.295 C 184.304 77.435 185.726 77.611 187.144 77.822 C 188.562 78.029 189.972 78.275 191.378 78.556 C 192.785 78.834 194.183 79.15 195.574 79.498 C 196.964 79.845 198.343 80.228 199.714 80.642 C 201.085 81.06 202.449 81.509 203.796 81.99 C 205.148 82.474 206.484 82.99 207.808 83.537 C 209.132 84.088 210.441 84.666 211.738 85.279 C 213.031 85.892 214.312 86.537 215.574 87.213 C 216.839 87.888 218.085 88.595 219.316 89.33 C 220.542 90.068 221.753 90.834 222.945 91.631 C 224.136 92.427 225.308 93.252 226.46 94.107 C 227.613 94.959 228.742 95.841 229.847 96.752 C 230.957 97.658 232.042 98.595 233.105 99.556 C 234.164 100.521 235.203 101.509 236.214 102.521 C 237.23 103.533 238.218 104.572 239.179 105.634 C 240.144 106.697 241.078 107.779 241.988 108.888 C 242.898 109.998 243.777 111.127 244.632 112.275 C 245.484 113.427 246.312 114.599 247.105 115.791 C 247.902 116.982 248.667 118.193 249.406 119.424 C 250.144 120.65 250.847 121.896 251.523 123.162 C 252.199 124.427 252.843 125.705 253.457 127.002 C 254.07 128.299 254.652 129.607 255.199 130.931 C 255.746 132.256 256.261 133.591 256.746 134.939 C 257.23 136.291 257.679 137.65 258.093 139.021 C 258.511 140.392 258.894 141.775 259.242 143.166 C 259.589 144.552 259.902 145.951 260.183 147.357 C 260.46 148.763 260.707 150.174 260.917 151.591 C 261.128 153.009 261.304 154.431 261.445 155.857 C 261.582 157.283 261.687 158.713 261.757 160.146 C 261.828 161.576 261.863 163.009 261.863 164.443 Z M 261.863 164.443"/>
  <path fill="#4C6CB5" d="M 174.296 76.873 C 125.929 76.873 86.726 116.076 86.726 164.443 C 86.726 185.189 93.98 204.224 106.039 219.228 C 121.039 231.283 140.078 238.537 160.824 238.537 C 209.187 238.537 248.394 199.334 248.394 150.97 C 248.394 130.224 241.136 111.185 229.082 96.185 C 214.078 84.127 195.042 76.873 174.296 76.873 Z M 174.296 76.873"/>
  <path fill="#C0DAFC" d="M 127.589 150.525 L 174.742 103.373 L 221.894 150.525 L 201.683 150.525 L 201.683 217.884 L 147.796 217.884 L 147.796 150.525 Z M 127.589 150.525"/>
</svg>