<?xml version="1.0" encoding="utf-8"?>
<svg viewBox="0 0 500 500" xmlns="http://www.w3.org/2000/svg">
  <defs>
    <clipPath id="e">
      <path d="M 642 263.429688 L 1005 263.429688 L 1005 627 L 642 627 Z M 642 263.429688"/>
    </clipPath>
    <clipPath id="f">
      <path d="M 873 296 L 1137 296 L 1137 648.097656 L 873 648.097656 Z M 873 296"/>
    </clipPath>
    <clipPath id="g">
      <path d="M 939 563 L 1014 563 L 1014 648.097656 L 939 648.097656 Z M 939 563"/>
    </clipPath>
  </defs>
  <g clip-path="url(#e)" transform="matrix(0.965768, 0, 0, 0.982395, -614.941406, -223.049911)" style="">
    <path fill="#7986CB" d="M 823.625 263.429688 C 723.632812 263.429688 642.28125 344.78125 642.28125 444.773438 C 642.28125 544.765625 723.632812 626.117188 823.625 626.117188 C 923.621094 626.117188 1004.972656 544.765625 1004.972656 444.773438 C 1004.972656 344.78125 923.621094 263.429688 823.625 263.429688 Z M 823.625 263.429688"/>
  </g>
  <path fill="#E8EAF6" d="M 323.784 213.892 C 323.784 216.28 323.728 218.663 323.615 221.046 C 323.498 223.428 323.324 225.804 323.094 228.179 C 322.864 230.555 322.577 232.919 322.234 235.279 C 321.891 237.639 321.49 239.992 321.031 242.329 C 320.574 244.67 320.061 246.995 319.491 249.309 C 318.921 251.623 318.296 253.922 317.617 256.205 C 316.934 258.488 316.198 260.753 315.41 262.997 C 314.617 265.242 313.776 267.468 312.878 269.675 C 311.98 271.877 311.029 274.057 310.026 276.214 C 309.026 278.37 307.97 280.5 306.865 282.603 C 305.759 284.705 304.605 286.782 303.398 288.827 C 302.194 290.877 300.938 292.891 299.637 294.871 C 298.331 296.856 296.984 298.805 295.585 300.723 C 294.189 302.638 292.748 304.518 291.258 306.36 C 289.772 308.206 288.24 310.01 286.667 311.779 C 285.09 313.548 283.475 315.276 281.815 316.959 C 280.155 318.648 278.458 320.291 276.722 321.895 C 274.983 323.495 273.21 325.053 271.395 326.569 C 269.584 328.081 267.736 329.547 265.85 330.966 C 263.967 332.391 262.051 333.764 260.1 335.088 C 258.15 336.412 256.17 337.69 254.159 338.914 C 252.148 340.142 250.107 341.316 248.04 342.441 C 245.972 343.566 243.878 344.639 241.758 345.66 C 239.639 346.677 237.496 347.644 235.326 348.558 C 233.161 349.471 230.973 350.33 228.766 351.133 C 226.555 351.935 224.329 352.683 222.089 353.378 C 219.843 354.068 217.584 354.705 215.309 355.285 C 213.035 355.864 210.745 356.386 208.447 356.85 C 206.146 357.319 203.837 357.726 201.517 358.075 C 199.197 358.424 196.869 358.719 194.533 358.95 C 192.202 359.184 189.863 359.36 187.521 359.479 C 185.178 359.594 182.835 359.652 180.488 359.652 C 178.146 359.652 175.803 359.594 173.46 359.479 C 171.117 359.36 168.778 359.184 166.443 358.95 C 164.112 358.719 161.784 358.424 159.464 358.075 C 157.145 357.726 154.836 357.319 152.534 356.85 C 150.233 356.386 147.947 355.864 145.672 355.285 C 143.397 354.705 141.137 354.068 138.893 353.378 C 136.648 352.683 134.422 351.935 132.215 351.133 C 130.009 350.33 127.82 349.471 125.655 348.558 C 123.486 347.644 121.343 346.677 119.223 345.66 C 117.103 344.639 115.009 343.566 112.941 342.441 C 110.874 341.316 108.833 340.142 106.822 338.914 C 104.812 337.69 102.831 336.412 100.881 335.088 C 98.93 333.764 97.014 332.391 95.128 330.97 C 93.246 329.547 91.396 328.081 89.585 326.569 C 87.772 325.053 85.998 323.495 84.259 321.895 C 82.52 320.291 80.822 318.648 79.166 316.959 C 77.506 315.276 75.892 313.548 74.315 311.779 C 72.741 310.01 71.21 308.206 69.719 306.36 C 68.233 304.518 66.792 302.638 65.393 300.723 C 63.996 298.805 62.646 296.856 61.344 294.871 C 60.043 292.891 58.787 290.877 57.584 288.827 C 56.376 286.782 55.221 284.705 54.117 282.603 C 53.011 280.5 51.955 278.37 50.952 276.214 C 49.951 274.057 49.001 271.877 48.103 269.675 C 47.206 267.468 46.36 265.242 45.571 262.997 C 44.783 260.753 44.047 258.488 43.365 256.205 C 42.686 253.922 42.06 251.623 41.49 249.309 C 40.92 246.995 40.407 244.67 39.947 242.329 C 39.49 239.992 39.09 237.639 38.747 235.279 C 38.4 232.919 38.114 230.555 37.883 228.179 C 37.657 225.804 37.483 223.428 37.366 221.046 C 37.253 218.663 37.196 216.28 37.196 213.892 C 37.196 211.506 37.253 209.123 37.366 206.74 C 37.483 204.356 37.657 201.981 37.883 199.605 C 38.114 197.23 38.4 194.866 38.747 192.507 C 39.09 190.147 39.49 187.798 39.947 185.457 C 40.407 183.116 40.92 180.791 41.49 178.477 C 42.06 176.163 42.686 173.864 43.365 171.581 C 44.047 169.298 44.783 167.033 45.571 164.788 C 46.36 162.544 47.206 160.317 48.103 158.111 C 49.001 155.909 49.951 153.729 50.952 151.572 C 51.955 149.416 53.011 147.286 54.117 145.183 C 55.221 143.079 56.376 141.004 57.584 138.958 C 58.787 136.913 60.043 134.898 61.344 132.915 C 62.646 130.93 63.996 128.981 65.393 127.062 C 66.792 125.147 68.233 123.266 69.719 121.424 C 71.21 119.58 72.741 117.776 74.315 116.007 C 75.892 114.237 77.506 112.51 79.166 110.825 C 80.822 109.138 82.52 107.495 84.259 105.891 C 85.998 104.291 87.772 102.732 89.585 101.221 C 91.396 99.705 93.246 98.239 95.128 96.819 C 97.014 95.395 98.93 94.022 100.881 92.697 C 102.831 91.374 104.812 90.096 106.822 88.872 C 108.833 87.644 110.874 86.469 112.941 85.345 C 115.009 84.22 117.103 83.146 119.223 82.129 C 121.343 81.108 123.486 80.141 125.655 79.228 C 127.82 78.315 130.009 77.459 132.215 76.653 C 134.422 75.851 136.648 75.103 138.893 74.408 C 141.137 73.717 143.397 73.08 145.672 72.501 C 147.947 71.922 150.233 71.4 152.534 70.935 C 154.836 70.467 157.145 70.06 159.464 69.711 C 161.784 69.362 164.112 69.07 166.443 68.836 C 168.778 68.602 171.117 68.425 173.46 68.306 C 175.803 68.191 178.146 68.134 180.488 68.134 C 182.835 68.134 185.178 68.191 187.521 68.306 C 189.863 68.425 192.202 68.602 194.533 68.836 C 196.869 69.07 199.197 69.362 201.517 69.711 C 203.837 70.06 206.146 70.467 208.447 70.935 C 210.745 71.4 213.035 71.922 215.309 72.501 C 217.584 73.08 219.843 73.717 222.089 74.408 C 224.329 75.103 226.555 75.851 228.766 76.653 C 230.973 77.459 233.161 78.315 235.326 79.228 C 237.496 80.141 239.639 81.108 241.758 82.129 C 243.878 83.146 245.972 84.22 248.04 85.345 C 250.107 86.469 252.148 87.644 254.159 88.872 C 256.17 90.096 258.15 91.374 260.1 92.697 C 262.051 94.022 263.967 95.395 265.85 96.819 C 267.736 98.239 269.584 99.705 271.395 101.221 C 273.21 102.732 274.983 104.291 276.722 105.891 C 278.458 107.495 280.155 109.138 281.815 110.825 C 283.475 112.51 285.09 114.237 286.667 116.007 C 288.24 117.776 289.772 119.58 291.258 121.424 C 292.748 123.266 294.189 125.147 295.585 127.062 C 296.984 128.981 298.331 130.93 299.637 132.915 C 300.938 134.898 302.194 136.913 303.398 138.958 C 304.605 141.004 305.759 143.079 306.865 145.183 C 307.97 147.286 309.026 149.416 310.026 151.572 C 311.029 153.729 311.98 155.909 312.878 158.111 C 313.776 160.317 314.617 162.544 315.41 164.788 C 316.198 167.033 316.934 169.298 317.617 171.581 C 318.296 173.864 318.921 176.163 319.491 178.477 C 320.061 180.791 320.574 183.116 321.031 185.457 C 321.49 187.798 321.891 190.147 322.234 192.507 C 322.577 194.866 322.864 197.23 323.094 199.605 C 323.324 201.981 323.498 204.356 323.615 206.74 C 323.728 209.123 323.784 211.506 323.784 213.892 Z M 323.784 213.892" style=""/>
  <g clip-path="url(#f)" transform="matrix(0.965768, 0, 0, 0.982395, -614.941406, -223.049911)" style="">
    <path fill="#FFB74D" d="M 1010.105469 296.5 C 1080.378906 299.160156 1137.488281 359.167969 1136.863281 429.484375 C 1136.574219 460.632812 1125.464844 489.140625 1107.144531 511.53125 C 1091.480469 530.652344 1081.90625 554.007812 1081.90625 578.726562 L 1081.90625 620.292969 C 1049.234375 638.03125 1011.796875 648.097656 972 648.097656 C 968.285156 648.097656 964.679688 647.726562 961.011719 647.539062 C 953.558594 647.199219 946.261719 646.375 939.027344 645.339844 L 939.027344 542.390625 C 899.636719 519.574219 873.085938 477.085938 873.085938 428.289062 C 873.085938 353.75 934.929688 293.652344 1010.105469 296.5"/>
  </g>
  <path fill="#FFB74D" d="M 270.32 344.279 L 313.172 338.058 L 313.172 240.886 L 228.256 240.886 L 235.707 316.714 C 237.427 334.236 253.178 346.785 270.32 344.279" style=""/>
  <path fill="#FFB74D" d="M 196.413 251.684 L 238.869 262.479 L 249.485 208.493 L 238.869 165.306 C 238.869 165.306 213.884 203.325 196.348 223.901 C 176.894 246.738 196.413 251.684 196.413 251.684 Z M 196.413 251.684" style=""/>
  <path fill="#FFB74D" d="M 109.607 174.743 C 105.34 150.513 94.407 128.67 78.898 111.117 C 53.139 137.473 37.196 173.783 37.196 213.892 C 37.196 262.879 61.035 306.123 97.474 332.552 C 100.862 328.115 103.205 322.751 103.8 316.714 L 109.29 260.956 L 145.748 251.684 C 145.748 251.684 165.271 246.738 145.811 223.901 C 133.755 209.749 118.174 187.353 109.607 174.743 Z M 109.607 174.743" style=""/>
  <path fill="#6D4C41" d="M 355.628 57.335 C 319.348 57.335 282.143 68.544 260.1 88.894 C 260.1 112.618 290.114 154.508 323.784 154.508 L 334.401 197.699 L 349.121 203.689 C 354.534 193.723 364.864 186.9 376.857 186.9 C 394.447 186.9 408.7 201.402 408.7 219.293 C 408.7 233.383 399.816 245.238 387.473 249.697 L 387.473 305.666 L 429.929 338.058 C 439.62 295.098 493.616 279.982 493.616 197.699 C 493.616 120.174 431.841 57.335 355.628 57.335 Z M 355.628 57.335" style=""/>
  <g clip-path="url(#g)" transform="matrix(0.965768, 0, 0, 0.982395, -614.941406, -223.049911)" style="">
    <path fill="#FF9800" d="M 1013.734375 643.898438 C 999.5 646.648438 984.804688 648.097656 969.769531 648.097656 C 966.054688 648.097656 962.449219 647.714844 958.777344 647.539062 C 951.339844 647.199219 946.273438 646.375 939.027344 645.328125 L 939.027344 574.253906 L 1013.734375 563.4375 Z M 1013.734375 643.898438"/>
  </g>
  <path fill="#784719" d="M 281.329 203.094 C 281.329 212.036 274.195 219.293 265.404 219.293 C 256.619 219.293 249.485 212.036 249.485 203.094 C 249.485 194.157 256.619 186.9 265.404 186.9 C 274.195 186.9 281.329 194.157 281.329 203.094" style=""/>
  <path fill="#784719" d="M 47.809 203.094 C 47.809 212.036 54.942 219.293 63.733 219.293 C 72.519 219.293 79.652 212.036 79.652 203.094 C 79.652 194.157 72.519 186.9 63.733 186.9 C 54.942 186.9 47.809 194.157 47.809 203.094" style=""/>
</svg>