<?xml version="1.0" encoding="utf-8"?>
<svg viewBox="0 0 500 500" xmlns="http://www.w3.org/2000/svg">
  <defs>
    <clipPath id="e">
      <path d="M 871 1398 L 1142.621094 1398 L 1142.621094 1539 L 871 1539 Z M 871 1398"/>
    </clipPath>
    <clipPath id="f">
      <path d="M 871 1404 L 1142.621094 1404 L 1142.621094 1539 L 871 1539 Z M 871 1404"/>
    </clipPath>
    <clipPath id="g">
      <path d="M 552.496094 1398 L 824 1398 L 824 1539 L 552.496094 1539 Z M 552.496094 1398"/>
    </clipPath>
    <clipPath id="h">
      <path d="M 552.496094 1403 L 688 1403 L 688 1539 L 552.496094 1539 Z M 552.496094 1403"/>
    </clipPath>
    <clipPath id="i">
      <path d="M 682 1390 L 1019 1390 L 1019 1565.121094 L 682 1565.121094 Z M 682 1390"/>
    </clipPath>
    <clipPath id="j">
      <path d="M 822 1432 L 879 1432 L 879 1565.121094 L 822 1565.121094 Z M 822 1432"/>
    </clipPath>
    <clipPath id="k">
      <path d="M 682 1396 L 851 1396 L 851 1565.121094 L 682 1565.121094 Z M 682 1396"/>
    </clipPath>
    <clipPath id="l">
      <path d="M 850 1396 L 1019 1396 L 1019 1565.121094 L 850 1565.121094 Z M 850 1396"/>
    </clipPath>
    <clipPath id="m">
      <path d="M 748 1396 L 851 1396 L 851 1565.121094 L 748 1565.121094 Z M 748 1396"/>
    </clipPath>
    <clipPath id="n">
      <path d="M 850 1396 L 954 1396 L 954 1565.121094 L 850 1565.121094 Z M 850 1396"/>
    </clipPath>
  </defs>
  <path fill="#3C3E68" d="M 420.746 293.925 L 323.375 293.925 L 323.375 167.54 L 420.746 167.54 L 420.746 293.925" style=""/>
  <path fill="#51558F" d="M 408.478 133.169 C 408.478 133.169 431.361 151.221 431.361 182.677 L 431.361 293.925 L 408.478 293.925 L 408.478 133.169" style=""/>
  <path fill="#F0AC92" d="M 395.468 271.9 L 350.051 271.9 L 350.051 231.73 L 395.468 231.73 L 395.468 271.9" style=""/>
  <path fill="#F8BFA7" d="M 419.423 161.312 C 408.665 126.807 374.834 126.997 372.79 127.033 L 372.543 127.033 C 370.482 126.997 336.651 126.807 325.889 161.312 C 325.889 161.312 317.869 176.332 329.746 217.708 C 329.746 217.708 343.021 249.896 372.543 253.097 L 372.79 253.097 C 402.294 249.896 415.57 217.708 415.57 217.708 C 427.446 176.332 419.423 161.312 419.423 161.312" style=""/>
  <path fill="#F8BFA7" d="M 421.9 195.119 C 417.445 194.442 413.034 198.996 412.045 205.263 C 411.034 211.533 413.817 217.162 418.269 217.819 C 422.724 218.479 427.116 213.943 428.124 207.675 C 429.135 201.406 426.331 195.776 421.9 195.119" style=""/>
  <path fill="#F8BFA7" d="M 323.415 195.119 C 318.984 195.776 316.181 201.406 317.189 207.675 C 318.199 213.943 322.612 218.479 327.043 217.819 C 331.496 217.162 334.281 211.533 333.27 205.263 C 332.259 198.996 327.868 194.442 323.415 195.119" style=""/>
  <g clip-path="url(#e)" transform="matrix(0.781796, 0, 0, 0.713057, -414.638184, -735.846191)" style="">
    <path fill="#F0AC92" d="M 1135.125 1457.8125 C 1131.488281 1434.183594 1111.523438 1426.898438 1111.523438 1426.898438 L 1036.183594 1398.546875 L 978.117188 1398.546875 L 902.777344 1426.898438 C 902.777344 1426.898438 882.789062 1434.183594 879.175781 1457.8125 L 871.925781 1538.667969 L 1142.402344 1538.667969 L 1135.125 1457.8125"/>
  </g>
  <g clip-path="url(#f)" transform="matrix(0.781796, 0, 0, 0.713057, -414.638184, -735.846191)" style="">
    <path fill="#EC3655" d="M 1053.5625 1405.09375 L 1111.523438 1426.898438 C 1111.523438 1426.898438 1131.488281 1434.183594 1135.125 1457.8125 L 1142.402344 1538.667969 L 871.925781 1538.667969 L 879.175781 1457.8125 C 882.789062 1434.183594 902.777344 1426.898438 902.777344 1426.898438 L 961.769531 1404.695312 C 961.769531 1404.695312 960.871094 1446.90625 1007.152344 1450.523438 C 1007.152344 1450.523438 1056.570312 1454.800781 1053.5625 1405.09375"/>
  </g>
  <path fill="#51558F" d="M 351.413 151.597 C 351.413 151.597 333.474 158.809 333.474 195.044 L 333.474 271.279 L 312.137 278.318 L 312.137 198.807 C 312.137 198.807 306.674 154.948 338.508 131.551 L 351.413 151.597" style=""/>
  <path fill="#51558F" d="M 338.508 131.551 C 338.508 131.551 371.927 109.621 408.478 133.169 C 408.478 133.169 423.693 142.901 427.464 160.803 C 427.464 160.803 433.691 183.713 421.9 195.119 C 421.9 195.119 375.224 185.763 351.413 151.597 L 338.508 131.551" style=""/>
  <path fill="#F8BFA7" d="M 172.794 191.807 C 168.216 191.146 163.681 195.72 162.631 202.046 C 161.599 208.388 164.484 214.054 169.041 214.734 C 173.619 215.391 178.153 210.817 179.204 204.492 C 180.237 198.149 177.372 192.484 172.794 191.807" style=""/>
  <path fill="#F8BFA7" d="M 73.65 191.807 C 69.075 192.484 66.207 198.149 67.239 204.492 C 68.269 210.817 72.807 215.391 77.381 214.734 C 81.959 214.054 84.823 208.388 83.794 202.046 C 82.762 195.72 78.206 191.146 73.65 191.807" style=""/>
  <path fill="#F0AC92" d="M 145.932 271.9 L 100.514 271.9 L 100.514 231.73 L 145.932 231.73 L 145.932 271.9" style=""/>
  <path fill="#F8BFA7" d="M 169.783 162.647 C 159.745 132.718 130.223 130.083 123.211 129.877 C 116.203 130.083 86.681 132.718 76.639 162.647 C 76.639 162.647 76.001 189.773 81.751 226.346 C 82.328 230.092 85.382 233.331 88.433 235.721 C 97.916 243.138 110.986 251.985 123.211 252.793 C 135.457 251.985 148.506 243.138 157.992 235.721 C 161.064 233.331 164.094 230.092 164.692 226.346 C 170.443 189.773 169.783 162.647 169.783 162.647" style=""/>
  <path fill="#51558F" d="M 167.309 204.38 C 167.084 204.435 166.897 204.475 166.711 204.492 C 165.907 209.068 165.516 208.483 162.423 212.079 C 159.828 215.146 156.547 216.822 152.363 217.388 C 147.004 218.12 144.014 214.639 139.128 213.773 C 134.428 212.965 130.531 214.6 125.953 214.469 C 122.387 214.374 118.966 213.812 115.418 213.508 C 108.986 212.945 103.422 216.313 97.173 215.656 C 88.226 214.695 86.454 209.424 79.177 207.26 C 79.855 213.227 80.679 219.627 81.751 226.346 C 82.328 230.092 85.382 233.331 88.433 235.721 C 97.916 243.138 110.986 251.985 123.211 252.793 C 135.457 251.985 148.506 243.138 157.992 235.721 C 161.064 233.331 164.094 230.092 164.692 226.346 C 165.907 218.515 166.857 211.098 167.556 204.305 C 167.474 204.341 167.391 204.36 167.309 204.38" style=""/>
  <g clip-path="url(#g)" transform="matrix(0.781796, 0, 0, 0.713057, -414.638184, -735.846191)" style="">
    <path fill="#F0AC92" d="M 815.941406 1457.8125 C 812.300781 1434.183594 792.339844 1426.898438 792.339844 1426.898438 L 717 1398.546875 L 658.933594 1398.546875 L 583.59375 1426.898438 C 583.59375 1426.898438 563.628906 1434.183594 559.992188 1457.8125 L 552.714844 1538.667969 L 823.21875 1538.667969 L 815.941406 1457.8125"/>
    <path fill="#D1F0FC" d="M 815.941406 1457.8125 C 812.300781 1434.183594 792.339844 1426.898438 792.339844 1426.898438 L 717 1398.546875 L 687.964844 1407.363281 L 658.933594 1398.546875 L 583.59375 1426.898438 C 583.59375 1426.898438 563.628906 1434.183594 559.992188 1457.8125 L 552.714844 1538.667969 L 823.21875 1538.667969 L 815.941406 1457.8125"/>
  </g>
  <path fill="#FBCA48" d="M 129.169 285.058 L 134.345 268.024 L 112.079 268.024 L 117.253 285.058 L 129.169 285.058" style=""/>
  <path fill="#F8A446" d="M 129.169 285.058 L 117.253 285.058 L 105.441 361.311 L 140.981 361.311 L 129.169 285.058" style=""/>
  <g clip-path="url(#h)" transform="matrix(0.781796, 0, 0, 0.713057, -414.638184, -735.846191)" style="">
    <path fill="#2F497B" d="M 687.835938 1512.480469 L 645.878906 1403.457031 L 583.59375 1426.898438 C 583.59375 1426.898438 563.628906 1434.183594 559.992188 1457.8125 L 552.714844 1538.667969 L 687.835938 1538.667969 L 687.835938 1512.480469"/>
  </g>
  <path fill="#2F497B" d="M 123.336 342.638 L 156.117 264.898 L 204.811 281.613 C 204.811 281.613 220.438 286.808 223.284 303.657 L 228.952 361.311 L 123.336 361.311 L 123.336 342.638" style=""/>
  <path fill="#36538C" d="M 123.336 342.638 L 123.336 361.311 L 84.164 309.943 L 92.495 298.498 L 59.094 275.607 L 90.309 264.898 L 123.336 342.638" style=""/>
  <path fill="#36538C" d="M 123.336 342.638 L 123.336 361.311 L 162.506 309.943 L 154.156 298.498 L 187.553 275.607 L 156.343 264.898 L 123.336 342.638" style=""/>
  <path fill="#9BDFF8" d="M 99.938 251.985 L 123.211 267.684 L 104.329 285.867 L 79.937 268.475 L 99.938 251.985" style=""/>
  <path fill="#9BDFF8" d="M 146.488 251.985 L 123.211 267.684 L 142.097 285.867 L 166.485 268.475 L 146.488 251.985" style=""/>
  <path fill="#51558F" d="M 174.465 155.628 L 172.794 194.838 C 170.629 194.063 168.628 195.625 168.628 195.625 L 167.166 210.948 L 162.423 213.282 L 162.423 187.08 L 160.322 156.661 C 159.229 147.628 145.932 148.324 145.932 148.324 C 132.944 153.143 98.224 148.926 98.224 148.926 C 90.968 150.94 89.194 165.265 89.194 165.265 L 83.999 189.133 L 83.999 211.007 L 79.177 207.26 L 79.012 196.587 C 75.857 194.197 73.65 194.838 73.65 194.838 L 71.136 161.312 C 72.064 149.357 83.999 136.183 83.999 136.183 C 83.999 136.183 103.504 120.22 144.86 127.242 C 144.86 127.242 158.713 128.841 160.691 124.022 C 160.691 124.022 165.083 129.047 163.538 133.659 C 163.538 133.659 169.7 134.319 173.228 129.877 C 173.228 129.877 181.431 146.478 174.465 155.628" style=""/>
  <path fill="#F0AC92" d="M 278.658 268.906 L 222.169 268.906 L 222.169 218.95 L 278.658 218.95 L 278.658 268.906" style=""/>
  <path fill="#F8BFA7" d="M 308.344 133.039 C 295.851 95.822 259.134 92.53 250.415 92.266 C 241.693 92.53 204.976 95.822 192.482 133.039 C 192.482 133.039 191.679 166.769 198.831 212.265 C 199.574 216.897 203.348 220.945 207.141 223.92 C 218.953 233.161 235.2 244.135 250.415 245.133 C 265.629 244.135 281.873 233.161 293.686 223.92 C 297.481 220.945 301.253 216.897 301.995 212.265 C 309.15 166.769 308.344 133.039 308.344 133.039" style=""/>
  <path fill="#F8BFA7" d="M 312.076 169.293 C 306.387 168.466 300.737 174.167 299.46 182.036 C 298.159 189.904 301.727 196.963 307.419 197.793 C 313.108 198.64 318.755 192.935 320.034 185.066 C 321.333 177.198 317.765 170.14 312.076 169.293" style=""/>
  <path fill="#F8BFA7" d="M 188.75 169.293 C 183.062 170.14 179.494 177.198 180.771 185.066 C 182.072 192.935 187.718 198.64 193.41 197.793 C 199.1 196.963 202.667 189.904 201.387 182.036 C 200.09 174.167 194.44 168.466 188.75 169.293" style=""/>
  <g clip-path="url(#i)" transform="matrix(0.781796, 0, 0, 0.713057, -414.638184, -735.846191)" style="">
    <path fill="#F0AC92" d="M 1009.839844 1464.464844 C 1005.332031 1435.082031 980.515625 1426.027344 980.515625 1426.027344 L 886.796875 1390.785156 L 814.542969 1390.785156 L 720.824219 1426.027344 C 720.824219 1426.027344 695.984375 1435.082031 691.472656 1464.464844 L 682.453125 1565.042969 L 1018.886719 1565.042969 L 1009.839844 1464.464844"/>
    <path fill="#D1F0FC" d="M 1009.839844 1464.464844 C 1005.332031 1435.082031 980.515625 1426.027344 980.515625 1426.027344 L 886.796875 1390.785156 L 850.671875 1401.714844 L 814.542969 1390.785156 L 720.824219 1426.027344 C 720.824219 1426.027344 695.984375 1435.082031 691.472656 1464.464844 L 682.453125 1565.042969 L 1018.886719 1565.042969 L 1009.839844 1464.464844"/>
  </g>
  <path fill="#EC3655" d="M 257.836 285.301 L 264.246 264.107 L 236.581 264.107 L 243.012 285.301 L 257.836 285.301" style=""/>
  <g clip-path="url(#j)" transform="matrix(0.781796, 0, 0, 0.713057, -414.638184, -735.846191)" style="">
    <path fill="#CC2E48" d="M 860.164062 1432.070312 L 841.203125 1432.070312 L 822.375 1565.042969 L 878.9375 1565.042969 L 860.164062 1432.070312"/>
  </g>
  <g clip-path="url(#k)" transform="matrix(0.781796, 0, 0, 0.713057, -414.638184, -735.846191)" style="">
    <path fill="#2F497B" d="M 850.484375 1532.492188 L 798.324219 1396.882812 L 720.824219 1426.027344 C 720.824219 1426.027344 695.984375 1435.082031 691.472656 1464.464844 L 682.453125 1565.039062 L 850.484375 1565.039062 L 850.484375 1532.492188"/>
  </g>
  <g clip-path="url(#l)" transform="matrix(0.781796, 0, 0, 0.713057, -414.638184, -735.846191)" style="">
    <path fill="#2F497B" d="M 850.855469 1532.492188 L 903.015625 1396.882812 L 980.515625 1426.027344 C 980.515625 1426.027344 1005.332031 1435.082031 1009.839844 1464.464844 L 1018.886719 1565.039062 L 850.855469 1565.039062 L 850.855469 1532.492188"/>
  </g>
  <g clip-path="url(#m)" transform="matrix(0.781796, 0, 0, 0.713057, -414.638184, -735.846191)" style="">
    <path fill="#36538C" d="M 850.855469 1532.492188 L 850.855469 1565.039062 L 788.515625 1475.445312 L 801.804688 1455.488281 L 748.671875 1415.574219 L 798.324219 1396.882812 L 850.855469 1532.492188"/>
  </g>
  <g clip-path="url(#n)" transform="matrix(0.781796, 0, 0, 0.713057, -414.638184, -735.846191)" style="">
    <path fill="#36538C" d="M 850.855469 1532.492188 L 850.855469 1565.039062 L 913.167969 1475.445312 L 899.902344 1455.488281 L 953.011719 1415.574219 L 903.382812 1396.882812 L 850.855469 1532.492188"/>
  </g>
  <path fill="#9BDFF8" d="M 221.47 244.155 L 250.415 263.656 L 226.912 286.281 L 196.566 264.653 L 221.47 244.155" style=""/>
  <path fill="#9BDFF8" d="M 279.359 244.155 L 250.415 263.656 L 273.915 286.281 L 304.243 264.653 L 279.359 244.155" style=""/>
  <path fill="#51558F" d="M 196.605 189.358 L 199.347 189.358 L 201.635 162.196 L 212.748 131.852 C 212.748 131.852 216.584 118.676 215.408 113.103 C 215.408 113.103 219.717 117.942 231.487 117.942 C 231.487 117.942 264.784 120.164 286.719 116.078 C 286.719 116.078 295.75 118.676 296.511 124.999 L 294.76 145.085 L 301.231 189.358 L 305.089 189.358 L 306.921 170.29 C 306.921 170.29 309.397 168.351 312.076 169.293 L 314.159 120.54 C 314.159 120.54 310.076 98.967 299.192 92.266 C 299.192 92.266 243.898 68.473 201.635 96.352 C 201.635 96.352 186.812 112.727 185.638 127.618 L 188.75 169.293 C 188.75 169.293 191.515 168.521 195.43 171.496 L 196.605 189.358" style=""/>
</svg>